<?xml version="1.0" encoding="UTF-8" standalone="no"?>
<!DOCTYPE svg PUBLIC "-//W3C//DTD SVG 1.1//EN"
 "http://www.w3.org/Graphics/SVG/1.1/DTD/svg11.dtd">
<!-- Generated by graphviz version 2.43.0 (0)
 -->
<!-- Title: RouteTree Pages: 1 -->
<svg width="7718pt" height="2578pt"
 viewBox="0.00 0.00 7718.40 2578.40" xmlns="http://www.w3.org/2000/svg" xmlns:xlink="http://www.w3.org/1999/xlink">
<g id="graph0" class="graph" transform="scale(1 1) rotate(0) translate(25.2 2553.2)">
<title>RouteTree</title>
<polygon fill="white" stroke="transparent" points="-25.2,25.2 -25.2,-2553.2 7693.2,-2553.2 7693.2,25.2 -25.2,25.2"/>
<text text-anchor="start" x="3382" y="-2512.8" font-family="Times,serif" font-size="14.00">Route 09 | 17 steps | score 0.000316 | triage_fragment | acylating_piece_present, aryl_coupling_hint, carrier_reagent_terminal</text>
<!-- n0&#45;&gt;n1 -->
<g id="edge1" class="edge">
<title>n0&#45;&gt;n1</title>
<path fill="none" stroke="#333333" stroke-width="1.2" d="M260.26,-177.89C326.7,-196.86 407.65,-219.96 475.03,-239.19"/>
<polygon fill="#333333" stroke="#333333" stroke-width="1.2" points="474.52,-241.59 481.92,-241.16 475.86,-236.88 474.52,-241.59"/>
<text text-anchor="middle" x="371" y="-231.8" font-family="Arial" font-size="9.00">S1.1 | enzymatic | EC 1.1.1.100 | 33 C</text>
</g>
<!-- n0&#45;&gt;n2 -->
<g id="edge2" class="edge">
<title>n0&#45;&gt;n2</title>
<path fill="none" stroke="#333333" stroke-width="1.2" d="M260.17,-126.05C356.68,-116.15 491.92,-105 611,-105 611,-105 611,-105 7054,-105 7170.98,-105 7303.91,-105 7400.65,-105"/>
<polygon fill="#333333" stroke="#333333" stroke-width="1.2" points="7400.85,-107.45 7407.85,-105 7400.85,-102.55 7400.85,-107.45"/>
<text text-anchor="middle" x="3968" y="-107.8" font-family="Arial" font-size="9.00">S1.2 | enzymatic | EC 1.1.1.100 | 33 C</text>
</g>
<!-- n1&#45;&gt;n3 -->
<g id="edge3" class="edge">
<title>n1&#45;&gt;n3</title>
<path fill="none" stroke="#333333" stroke-width="1.2" d="M742.06,-288.8C811.14,-294.58 896.21,-301.7 966.4,-307.57"/>
<polygon fill="#333333" stroke="#333333" stroke-width="1.2" points="966.4,-310.03 973.58,-308.17 966.81,-305.15 966.4,-310.03"/>
<text text-anchor="middle" x="858" y="-306.8" font-family="Arial" font-size="9.00">S2.1 | enzymatic | EC 1.14.14.155 | 77 C</text>
</g>
<!-- n3&#45;&gt;n4 -->
<g id="edge4" class="edge">
<title>n3&#45;&gt;n4</title>
<path fill="none" stroke="#333333" stroke-width="1.2" d="M1234.29,-341.73C1298.41,-353.01 1375.85,-366.63 1440.88,-378.06"/>
<polygon fill="#333333" stroke="#333333" stroke-width="1.2" points="1440.62,-380.5 1447.93,-379.3 1441.46,-375.68 1440.62,-380.5"/>
<text text-anchor="middle" x="1341" y="-374.8" font-family="Arial" font-size="9.00">S3.1 | enzymatic | EC 5.3.3.1 | &#45;60 C</text>
</g>
<!-- n4&#45;&gt;n5 -->
<g id="edge5" class="edge">
<title>n4&#45;&gt;n5</title>
<path fill="none" stroke="#333333" stroke-width="1.2" d="M1708.26,-448.59C1774.7,-472.54 1855.65,-501.71 1923.03,-525.99"/>
<polygon fill="#333333" stroke="#333333" stroke-width="1.2" points="1922.51,-528.41 1929.92,-528.48 1924.17,-523.8 1922.51,-528.41"/>
<text text-anchor="middle" x="1819" y="-516.8" font-family="Arial" font-size="9.00">S4.1 | enzymatic | EC 1.13.11.5 | 21 C</text>
</g>
<!-- n4&#45;&gt;n6 -->
<g id="edge6" class="edge">
<title>n4&#45;&gt;n6</title>
<path fill="none" stroke="#333333" stroke-width="1.2" d="M1708.11,-402C1804.74,-402 1940.15,-402 2059,-402 2059,-402 2059,-402 6633,-402 6727.27,-402 6833.46,-402 6915.36,-402"/>
<polygon fill="#333333" stroke="#333333" stroke-width="1.2" points="6915.7,-404.45 6922.7,-402 6915.7,-399.55 6915.7,-404.45"/>
<text text-anchor="middle" x="4387" y="-404.8" font-family="Arial" font-size="9.00">S4.2 | enzymatic | EC 1.13.11.5 | 21 C</text>
</g>
<!-- n5&#45;&gt;n7 -->
<g id="edge7" class="edge">
<title>n5&#45;&gt;n7</title>
<path fill="none" stroke="#333333" stroke-width="1.2" d="M2190.16,-621.46C2252.93,-644.04 2328.37,-671.18 2392.02,-694.08"/>
<polygon fill="#333333" stroke="#333333" stroke-width="1.2" points="2391.51,-696.5 2398.93,-696.57 2393.17,-691.89 2391.51,-696.5"/>
<text text-anchor="middle" x="2294.5" y="-685.8" font-family="Arial" font-size="9.00">S5.1 | enzymatic | EC 5.3.3.&#45; | 46 C</text>
</g>
<!-- n6&#45;&gt;n25 -->
<g id="edge25" class="edge">
<title>n6&#45;&gt;n25</title>
<path fill="none" stroke="#333333" stroke-width="1.2" d="M7183.12,-458.94C7250.53,-488.67 7332.97,-525.02 7401.31,-555.16"/>
<polygon fill="#333333" stroke="#333333" stroke-width="1.2" points="7400.49,-557.48 7407.88,-558.06 7402.47,-552.99 7400.49,-557.48"/>
<text text-anchor="middle" x="7295.5" y="-542.8" font-family="Arial" font-size="9.00">S17.1 | ChemEnzyRetroPlanner | 62 C</text>
</g>
<!-- n6&#45;&gt;n26 -->
<g id="edge26" class="edge">
<title>n6&#45;&gt;n26</title>
<path fill="none" stroke="#333333" stroke-width="1.2" d="M7183.12,-390.77C7250.39,-384.92 7332.63,-377.77 7400.9,-371.83"/>
<polygon fill="#333333" stroke="#333333" stroke-width="1.2" points="7401.12,-374.27 7407.88,-371.23 7400.7,-369.39 7401.12,-374.27"/>
<text text-anchor="middle" x="7295.5" y="-389.8" font-family="Arial" font-size="9.00">S17.2 | ChemEnzyRetroPlanner | 62 C</text>
</g>
<!-- n7&#45;&gt;n8 -->
<g id="edge8" class="edge">
<title>n7&#45;&gt;n8</title>
<path fill="none" stroke="#333333" stroke-width="1.2" d="M2659.04,-777.28C2724.93,-794.79 2805.09,-816.09 2871.95,-833.85"/>
<polygon fill="#333333" stroke="#333333" stroke-width="1.2" points="2871.4,-836.24 2878.79,-835.67 2872.66,-831.51 2871.4,-836.24"/>
<text text-anchor="middle" x="2769" y="-827.8" font-family="Arial" font-size="9.00">S6.1 | ChemEnzyRetroPlanner | 35 C</text>
</g>
<!-- n8&#45;&gt;n9 -->
<g id="edge9" class="edge">
<title>n8&#45;&gt;n9</title>
<path fill="none" stroke="#333333" stroke-width="1.2" d="M3139.08,-916.82C3204.7,-940.62 3284.43,-969.53 3351,-993.68"/>
<polygon fill="#333333" stroke="#333333" stroke-width="1.2" points="3350.4,-996.06 3357.81,-996.15 3352.07,-991.46 3350.4,-996.06"/>
<text text-anchor="middle" x="3248.5" y="-984.8" font-family="Arial" font-size="9.00">S7.1 | enzymatic | EC 4.1.2.47 | &#45;70 C</text>
</g>
<!-- n8&#45;&gt;n10 -->
<g id="edge10" class="edge">
<title>n8&#45;&gt;n10</title>
<path fill="none" stroke="#333333" stroke-width="1.2" d="M3139.06,-870C3235.03,-870 3369.2,-870 3487,-870 3487,-870 3487,-870 7054,-870 7170.98,-870 7303.91,-870 7400.65,-870"/>
<polygon fill="#333333" stroke="#333333" stroke-width="1.2" points="7400.85,-872.45 7407.85,-870 7400.85,-867.55 7400.85,-872.45"/>
<text text-anchor="middle" x="5299" y="-872.8" font-family="Arial" font-size="9.00">S7.2 | enzymatic | EC 4.1.2.47 | &#45;70 C</text>
</g>
<!-- n9&#45;&gt;n11 -->
<g id="edge11" class="edge">
<title>n9&#45;&gt;n11</title>
<path fill="none" stroke="#333333" stroke-width="1.2" d="M3583.44,-1148.11C3665.55,-1239.49 3784.13,-1371.47 3867.65,-1464.43"/>
<polygon fill="#333333" stroke="#333333" stroke-width="1.2" points="3865.85,-1466.09 3872.35,-1469.66 3869.49,-1462.81 3865.85,-1466.09"/>
<text text-anchor="middle" x="3728" y="-1389.8" font-family="Arial" font-size="9.00">S8.1 | ChemEnzyRetroPlanner | 22 C</text>
</g>
<!-- n11&#45;&gt;n12 -->
<g id="edge12" class="edge">
<title>n11&#45;&gt;n12</title>
<path fill="none" stroke="#333333" stroke-width="1.2" d="M4076.12,-1680.06C4136.67,-1739.46 4212.31,-1813.64 4273.7,-1873.85"/>
<polygon fill="#333333" stroke="#333333" stroke-width="1.2" points="4272.13,-1875.75 4278.84,-1878.9 4275.56,-1872.25 4272.13,-1875.75"/>
<text text-anchor="middle" x="4177.5" y="-1818.8" font-family="Arial" font-size="9.00">S9.1 | template | &#45;58 C</text>
</g>
<!-- n12&#45;&gt;n13 -->
<g id="edge13" class="edge">
<title>n12&#45;&gt;n13</title>
<path fill="none" stroke="#333333" stroke-width="1.2" d="M4449.65,-2089.24C4530.67,-2212.48 4685.43,-2400 4877,-2400 4877,-2400 4877,-2400 7054,-2400 7170.98,-2400 7303.91,-2400 7400.65,-2400"/>
<polygon fill="#333333" stroke="#333333" stroke-width="1.2" points="7400.85,-2402.45 7407.85,-2400 7400.85,-2397.55 7400.85,-2402.45"/>
<text text-anchor="middle" x="5965.5" y="-2402.8" font-family="Arial" font-size="9.00">S10.1 | ChemEnzyRetroPlanner | 105 C</text>
</g>
<!-- n12&#45;&gt;n14 -->
<g id="edge14" class="edge">
<title>n12&#45;&gt;n14</title>
<path fill="none" stroke="#333333" stroke-width="1.2" d="M4517.12,-1984C4585.92,-1984 4670.54,-1984 4740.43,-1984"/>
<polygon fill="#333333" stroke="#333333" stroke-width="1.2" points="4740.58,-1986.45 4747.58,-1984 4740.58,-1981.55 4740.58,-1986.45"/>
<text text-anchor="middle" x="4632.5" y="-1986.8" font-family="Arial" font-size="9.00">S10.2 | ChemEnzyRetroPlanner | 105 C</text>
</g>
<!-- n14&#45;&gt;n15 -->
<g id="edge15" class="edge">
<title>n14&#45;&gt;n15</title>
<path fill="none" stroke="#333333" stroke-width="1.2" d="M5008.12,-2061.67C5088.59,-2102.84 5195.91,-2145 5298,-2145 5298,-2145 5298,-2145 7054,-2145 7170.98,-2145 7303.91,-2145 7400.65,-2145"/>
<polygon fill="#333333" stroke="#333333" stroke-width="1.2" points="7400.85,-2147.45 7407.85,-2145 7400.85,-2142.55 7400.85,-2147.45"/>
<text text-anchor="middle" x="6211" y="-2147.8" font-family="Arial" font-size="9.00">S11.1 | template | 57 C</text>
</g>
<!-- n14&#45;&gt;n16 -->
<g id="edge16" class="edge">
<title>n14&#45;&gt;n16</title>
<path fill="none" stroke="#333333" stroke-width="1.2" d="M5008.13,-1976.3C5056.83,-1973.39 5112.36,-1970.08 5161.7,-1967.13"/>
<polygon fill="#333333" stroke="#333333" stroke-width="1.2" points="5162.09,-1969.56 5168.93,-1966.7 5161.8,-1964.67 5162.09,-1969.56"/>
<text text-anchor="middle" x="5088.5" y="-1975.8" font-family="Arial" font-size="9.00">S11.2 | template | 57 C</text>
</g>
<!-- n16&#45;&gt;n17 -->
<g id="edge17" class="edge">
<title>n16&#45;&gt;n17</title>
<path fill="none" stroke="#333333" stroke-width="1.2" d="M5429.13,-1882.88C5478.13,-1853.99 5534.05,-1821.03 5583.61,-1791.81"/>
<polygon fill="#333333" stroke="#333333" stroke-width="1.2" points="5585.15,-1793.75 5589.93,-1788.08 5582.66,-1789.53 5585.15,-1793.75"/>
<text text-anchor="middle" x="5509.5" y="-1859.8" font-family="Arial" font-size="9.00">S12.1 | template | 18 C</text>
</g>
<!-- n17&#45;&gt;n18 -->
<g id="edge18" class="edge">
<title>n17&#45;&gt;n18</title>
<path fill="none" stroke="#333333" stroke-width="1.2" d="M5850.12,-1695.63C5918.92,-1686.91 6003.54,-1676.18 6073.43,-1667.32"/>
<polygon fill="#333333" stroke="#333333" stroke-width="1.2" points="6073.95,-1669.72 6080.58,-1666.41 6073.33,-1664.86 6073.95,-1669.72"/>
<text text-anchor="middle" x="5965.5" y="-1692.8" font-family="Arial" font-size="9.00">S13.1 | template | &#45;43 C</text>
</g>
<!-- n18&#45;&gt;n19 -->
<g id="edge19" class="edge">
<title>n18&#45;&gt;n19</title>
<path fill="none" stroke="#333333" stroke-width="1.2" d="M6341.13,-1650C6389.83,-1650 6445.36,-1650 6494.7,-1650"/>
<polygon fill="#333333" stroke="#333333" stroke-width="1.2" points="6494.93,-1652.45 6501.93,-1650 6494.93,-1647.55 6494.93,-1652.45"/>
<text text-anchor="middle" x="6421.5" y="-1652.8" font-family="Arial" font-size="9.00">S14.1 | template | 38 C</text>
</g>
<!-- n18&#45;&gt;n20 -->
<g id="edge20" class="edge">
<title>n18&#45;&gt;n20</title>
<path fill="none" stroke="#333333" stroke-width="1.2" d="M6341.03,-1591.99C6391.08,-1569.88 6449,-1544.78 6502,-1523 6822,-1391.49 7202.76,-1248.49 7401.28,-1174.93"/>
<polygon fill="#333333" stroke="#333333" stroke-width="1.2" points="7402.27,-1177.18 7407.98,-1172.45 7400.56,-1172.59 7402.27,-1177.18"/>
<text text-anchor="middle" x="6842.5" y="-1403.8" font-family="Arial" font-size="9.00">S14.2 | template | 38 C</text>
</g>
<!-- n19&#45;&gt;n21 -->
<g id="edge21" class="edge">
<title>n19&#45;&gt;n21</title>
<path fill="none" stroke="#333333" stroke-width="1.2" d="M6762.03,-1705.63C6811.71,-1725.62 6869.37,-1747.13 6923,-1763 7084.6,-1810.83 7275.31,-1847.26 7400.81,-1868.58"/>
<polygon fill="#333333" stroke="#333333" stroke-width="1.2" points="7400.55,-1871.02 7407.86,-1869.77 7401.37,-1866.19 7400.55,-1871.02"/>
<text text-anchor="middle" x="7053" y="-1829.8" font-family="Arial" font-size="9.00">S15.1 | template | 12 C</text>
</g>
<!-- n19&#45;&gt;n22 -->
<g id="edge22" class="edge">
<title>n19&#45;&gt;n22</title>
<path fill="none" stroke="#333333" stroke-width="1.2" d="M6762.13,-1645.38C6810.83,-1643.63 6866.36,-1641.65 6915.7,-1639.88"/>
<polygon fill="#333333" stroke="#333333" stroke-width="1.2" points="6916.03,-1642.32 6922.93,-1639.62 6915.85,-1637.42 6916.03,-1642.32"/>
<text text-anchor="middle" x="6842.5" y="-1645.8" font-family="Arial" font-size="9.00">S15.2 | template | 12 C</text>
</g>
<!-- n22&#45;&gt;n23 -->
<g id="edge23" class="edge">
<title>n22&#45;&gt;n23</title>
<path fill="none" stroke="#333333" stroke-width="1.2" d="M7183.12,-1635C7250.25,-1635 7332.3,-1635 7400.49,-1635"/>
<polygon fill="#333333" stroke="#333333" stroke-width="1.2" points="7400.88,-1637.45 7407.88,-1635 7400.88,-1632.55 7400.88,-1637.45"/>
<text text-anchor="middle" x="7295.5" y="-1637.8" font-family="Arial" font-size="9.00">S16.1 | ChemEnzyRetroPlanner | 39 C</text>
</g>
<!-- n22&#45;&gt;n24 -->
<g id="edge24" class="edge">
<title>n22&#45;&gt;n24</title>
<path fill="none" stroke="#333333" stroke-width="1.2" d="M7183.12,-1566.83C7250.53,-1531.24 7332.97,-1487.72 7401.31,-1451.64"/>
<polygon fill="#333333" stroke="#333333" stroke-width="1.2" points="7402.84,-1453.6 7407.88,-1448.17 7400.55,-1449.27 7402.84,-1453.6"/>
<text text-anchor="middle" x="7295.5" y="-1547.8" font-family="Arial" font-size="9.00">S16.2 | ChemEnzyRetroPlanner | 39 C</text>
</g>
<!-- n0 -->
<g id="node1" class="node">
<title>n0</title>
<polygon fill="#f0f0f0" stroke="transparent" points="0,-225 0,-246 260,-246 260,-225 0,-225"/>
<polygon fill="none" stroke="#111111" points="0,-225 0,-246 260,-246 260,-225 0,-225"/>
<text text-anchor="start" x="109.5" y="-234" font-family="Arial" font-weight="bold" font-size="10.00">TARGET</text>
<polygon fill="none" stroke="#111111" points="0,-55 0,-225 260,-225 260,-55 0,-55"/>
<image xlink:href="results/v2/route_trees_3764f7_top10_current/molecules/0b6996454ae09fe2.png" width="250px" height="160px" preserveAspectRatio="xMinYMin meet" x="5" y="-220"/>
<polygon fill="none" stroke="#111111" points="0,-36 0,-55 260,-55 260,-36 0,-36"/>
<text text-anchor="start" x="28" y="-43.6" font-family="Arial" font-size="8.00">CC(C)C1=NC(=NC(=C1/C=C/[C@H](C[C@H](CC(=O...</text>
</g>
<!-- n1 -->
<g id="node2" class="node">
<title>n1</title>
<polygon fill="#ffffff" stroke="transparent" points="482,-362 482,-383 742,-383 742,-362 482,-362"/>
<polygon fill="none" stroke="#bdbdbd" points="482,-362 482,-383 742,-383 742,-362 482,-362"/>
<text text-anchor="start" x="574" y="-371" font-family="Arial" font-weight="bold" font-size="10.00">INTERMEDIATE</text>
<polygon fill="none" stroke="#bdbdbd" points="482,-192 482,-362 742,-362 742,-192 482,-192"/>
<image xlink:href="results/v2/route_trees_3764f7_top10_current/molecules/6a59dcc7d161d513.png" width="250px" height="160px" preserveAspectRatio="xMinYMin meet" x="487" y="-357"/>
<polygon fill="none" stroke="#bdbdbd" points="482,-173 482,-192 742,-192 742,-173 482,-173"/>
<text text-anchor="start" x="524" y="-180.6" font-family="Arial" font-size="8.00">CC(C)c1nc(N(C)S(C)(=O)=O)nc(&#45;c2ccc(F)cc2)...</text>
</g>
<!-- n2 -->
<g id="node3" class="node">
<title>n2</title>
<polygon fill="#edf6e7" stroke="transparent" points="7408,-189 7408,-210 7668,-210 7668,-189 7408,-189"/>
<polygon fill="none" stroke="#5f8f3d" points="7408,-189 7408,-210 7668,-210 7668,-189 7408,-189"/>
<text text-anchor="start" x="7511.5" y="-198" font-family="Arial" font-weight="bold" font-size="10.00">TERMINAL</text>
<polygon fill="none" stroke="#5f8f3d" points="7408,-19 7408,-189 7668,-189 7668,-19 7408,-19"/>
<image xlink:href="results/v2/route_trees_3764f7_top10_current/molecules/5c7f96ee7e82d868.png" width="250px" height="160px" preserveAspectRatio="xMinYMin meet" x="7413" y="-184"/>
<polygon fill="none" stroke="#5f8f3d" points="7408,0 7408,-19 7668,-19 7668,0 7408,0"/>
<text text-anchor="start" x="7528" y="-7.6" font-family="Arial" font-size="8.00">[OH&#45;]</text>
</g>
<!-- n3 -->
<g id="node4" class="node">
<title>n3</title>
<polygon fill="#ffffff" stroke="transparent" points="974,-403 974,-424 1234,-424 1234,-403 974,-403"/>
<polygon fill="none" stroke="#bdbdbd" points="974,-403 974,-424 1234,-424 1234,-403 974,-403"/>
<text text-anchor="start" x="1066" y="-412" font-family="Arial" font-weight="bold" font-size="10.00">INTERMEDIATE</text>
<polygon fill="none" stroke="#bdbdbd" points="974,-233 974,-403 1234,-403 1234,-233 974,-233"/>
<image xlink:href="results/v2/route_trees_3764f7_top10_current/molecules/e29273f4eef25340.png" width="250px" height="160px" preserveAspectRatio="xMinYMin meet" x="979" y="-398"/>
<polygon fill="none" stroke="#bdbdbd" points="974,-214 974,-233 1234,-233 1234,-214 974,-214"/>
<text text-anchor="start" x="1009.5" y="-221.6" font-family="Arial" font-size="8.00">COC(=O)C[C@H](O)C[C@H](O)/C=C/c1c(&#45;c2ccc(...</text>
</g>
<!-- n4 -->
<g id="node5" class="node">
<title>n4</title>
<polygon fill="#ffffff" stroke="transparent" points="1448,-486 1448,-507 1708,-507 1708,-486 1448,-486"/>
<polygon fill="none" stroke="#bdbdbd" points="1448,-486 1448,-507 1708,-507 1708,-486 1448,-486"/>
<text text-anchor="start" x="1540" y="-495" font-family="Arial" font-weight="bold" font-size="10.00">INTERMEDIATE</text>
<polygon fill="none" stroke="#bdbdbd" points="1448,-316 1448,-486 1708,-486 1708,-316 1448,-316"/>
<image xlink:href="results/v2/route_trees_3764f7_top10_current/molecules/e540e1696959b9d5.png" width="250px" height="160px" preserveAspectRatio="xMinYMin meet" x="1453" y="-481"/>
<polygon fill="none" stroke="#bdbdbd" points="1448,-297 1448,-316 1708,-316 1708,-297 1448,-297"/>
<text text-anchor="start" x="1484.5" y="-304.6" font-family="Arial" font-size="8.00">COC(=O)CC(=O)C[C@H](O)/C=C/c1c(&#45;c2ccc(F)c...</text>
</g>
<!-- n5 -->
<g id="node6" class="node">
<title>n5</title>
<polygon fill="#ffffff" stroke="transparent" points="1930,-659 1930,-680 2190,-680 2190,-659 1930,-659"/>
<polygon fill="none" stroke="#bdbdbd" points="1930,-659 1930,-680 2190,-680 2190,-659 1930,-659"/>
<text text-anchor="start" x="2022" y="-668" font-family="Arial" font-weight="bold" font-size="10.00">INTERMEDIATE</text>
<polygon fill="none" stroke="#bdbdbd" points="1930,-489 1930,-659 2190,-659 2190,-489 1930,-489"/>
<image xlink:href="results/v2/route_trees_3764f7_top10_current/molecules/0205dc34e441121a.png" width="250px" height="160px" preserveAspectRatio="xMinYMin meet" x="1935" y="-654"/>
<polygon fill="none" stroke="#bdbdbd" points="1930,-470 1930,-489 2190,-489 2190,-470 1930,-470"/>
<text text-anchor="start" x="1972" y="-477.6" font-family="Arial" font-size="8.00">CC(C)c1nc(N(C)S(C)(=O)=O)nc(&#45;c2ccc(F)cc2)...</text>
</g>
<!-- n6 -->
<g id="node7" class="node">
<title>n6</title>
<polygon fill="#ffffff" stroke="transparent" points="6923,-486 6923,-507 7183,-507 7183,-486 6923,-486"/>
<polygon fill="none" stroke="#bdbdbd" points="6923,-486 6923,-507 7183,-507 7183,-486 6923,-486"/>
<text text-anchor="start" x="7015" y="-495" font-family="Arial" font-weight="bold" font-size="10.00">INTERMEDIATE</text>
<polygon fill="none" stroke="#bdbdbd" points="6923,-316 6923,-486 7183,-486 7183,-316 6923,-316"/>
<image xlink:href="results/v2/route_trees_3764f7_top10_current/molecules/6597368e79aef144.png" width="250px" height="160px" preserveAspectRatio="xMinYMin meet" x="6928" y="-481"/>
<polygon fill="none" stroke="#bdbdbd" points="6923,-297 6923,-316 7183,-316 7183,-297 6923,-297"/>
<text text-anchor="start" x="7014.5" y="-304.6" font-family="Arial" font-size="8.00">COC(=O)CC(=O)[O&#45;]</text>
</g>
<!-- n7 -->
<g id="node8" class="node">
<title>n7</title>
<polygon fill="#ffffff" stroke="transparent" points="2399,-827 2399,-848 2659,-848 2659,-827 2399,-827"/>
<polygon fill="none" stroke="#bdbdbd" points="2399,-827 2399,-848 2659,-848 2659,-827 2399,-827"/>
<text text-anchor="start" x="2491" y="-836" font-family="Arial" font-weight="bold" font-size="10.00">INTERMEDIATE</text>
<polygon fill="none" stroke="#bdbdbd" points="2399,-657 2399,-827 2659,-827 2659,-657 2399,-657"/>
<image xlink:href="results/v2/route_trees_3764f7_top10_current/molecules/29c4845e89e4713c.png" width="250px" height="160px" preserveAspectRatio="xMinYMin meet" x="2404" y="-822"/>
<polygon fill="none" stroke="#bdbdbd" points="2399,-638 2399,-657 2659,-657 2659,-638 2399,-638"/>
<text text-anchor="start" x="2441" y="-645.6" font-family="Arial" font-size="8.00">CC(C)c1nc(N(C)S(C)(=O)=O)nc(&#45;c2ccc(F)cc2)...</text>
</g>
<!-- n8 -->
<g id="node9" class="node">
<title>n8</title>
<polygon fill="#ffffff" stroke="transparent" points="2879,-954 2879,-975 3139,-975 3139,-954 2879,-954"/>
<polygon fill="none" stroke="#bdbdbd" points="2879,-954 2879,-975 3139,-975 3139,-954 2879,-954"/>
<text text-anchor="start" x="2971" y="-963" font-family="Arial" font-weight="bold" font-size="10.00">INTERMEDIATE</text>
<polygon fill="none" stroke="#bdbdbd" points="2879,-784 2879,-954 3139,-954 3139,-784 2879,-784"/>
<image xlink:href="results/v2/route_trees_3764f7_top10_current/molecules/ca79ac7f201cbb6a.png" width="250px" height="160px" preserveAspectRatio="xMinYMin meet" x="2884" y="-949"/>
<polygon fill="none" stroke="#bdbdbd" points="2879,-765 2879,-784 3139,-784 3139,-765 2879,-765"/>
<text text-anchor="start" x="2921" y="-772.6" font-family="Arial" font-size="8.00">CC(C)c1nc(N(C)S(C)(=O)=O)nc(&#45;c2ccc(F)cc2)...</text>
</g>
<!-- n9 -->
<g id="node10" class="node">
<title>n9</title>
<polygon fill="#ffffff" stroke="transparent" points="3358,-1127 3358,-1148 3618,-1148 3618,-1127 3358,-1127"/>
<polygon fill="none" stroke="#bdbdbd" points="3358,-1127 3358,-1148 3618,-1148 3618,-1127 3358,-1127"/>
<text text-anchor="start" x="3450" y="-1136" font-family="Arial" font-weight="bold" font-size="10.00">INTERMEDIATE</text>
<polygon fill="none" stroke="#bdbdbd" points="3358,-957 3358,-1127 3618,-1127 3618,-957 3358,-957"/>
<image xlink:href="results/v2/route_trees_3764f7_top10_current/molecules/b2eed2c3d5baf19d.png" width="250px" height="160px" preserveAspectRatio="xMinYMin meet" x="3363" y="-1122"/>
<polygon fill="none" stroke="#bdbdbd" points="3358,-938 3358,-957 3618,-957 3618,-938 3358,-938"/>
<text text-anchor="start" x="3400" y="-945.6" font-family="Arial" font-size="8.00">CC(C)c1nc(N(C)S(C)(=O)=O)nc(&#45;c2ccc(F)cc2)...</text>
</g>
<!-- n10 -->
<g id="node11" class="node">
<title>n10</title>
<polygon fill="#edf6e7" stroke="transparent" points="7408,-954 7408,-975 7668,-975 7668,-954 7408,-954"/>
<polygon fill="none" stroke="#5f8f3d" points="7408,-954 7408,-975 7668,-975 7668,-954 7408,-954"/>
<text text-anchor="start" x="7511.5" y="-963" font-family="Arial" font-weight="bold" font-size="10.00">TERMINAL</text>
<polygon fill="none" stroke="#5f8f3d" points="7408,-784 7408,-954 7668,-954 7668,-784 7408,-784"/>
<image xlink:href="results/v2/route_trees_3764f7_top10_current/molecules/d150779d88df411e.png" width="250px" height="160px" preserveAspectRatio="xMinYMin meet" x="7413" y="-949"/>
<polygon fill="none" stroke="#5f8f3d" points="7408,-765 7408,-784 7668,-784 7668,-765 7408,-765"/>
<text text-anchor="start" x="7502.5" y="-772.6" font-family="Arial" font-size="8.00">CC(=O)OC(C)(C)C</text>
</g>
<!-- n11 -->
<g id="node12" class="node">
<title>n11</title>
<polygon fill="#ffffff" stroke="transparent" points="3838,-1659 3838,-1680 4098,-1680 4098,-1659 3838,-1659"/>
<polygon fill="none" stroke="#bdbdbd" points="3838,-1659 3838,-1680 4098,-1680 4098,-1659 3838,-1659"/>
<text text-anchor="start" x="3930" y="-1668" font-family="Arial" font-weight="bold" font-size="10.00">INTERMEDIATE</text>
<polygon fill="none" stroke="#bdbdbd" points="3838,-1489 3838,-1659 4098,-1659 4098,-1489 3838,-1489"/>
<image xlink:href="results/v2/route_trees_3764f7_top10_current/molecules/c22deec9ea926523.png" width="250px" height="160px" preserveAspectRatio="xMinYMin meet" x="3843" y="-1654"/>
<polygon fill="none" stroke="#bdbdbd" points="3838,-1470 3838,-1489 4098,-1489 4098,-1470 3838,-1470"/>
<text text-anchor="start" x="3880" y="-1477.6" font-family="Arial" font-size="8.00">CC(C)c1nc(N(C)S(C)(=O)=O)nc(&#45;c2ccc(F)cc2)...</text>
</g>
<!-- n12 -->
<g id="node13" class="node">
<title>n12</title>
<polygon fill="#ffffff" stroke="transparent" points="4257,-2068 4257,-2089 4517,-2089 4517,-2068 4257,-2068"/>
<polygon fill="none" stroke="#bdbdbd" points="4257,-2068 4257,-2089 4517,-2089 4517,-2068 4257,-2068"/>
<text text-anchor="start" x="4349" y="-2077" font-family="Arial" font-weight="bold" font-size="10.00">INTERMEDIATE</text>
<polygon fill="none" stroke="#bdbdbd" points="4257,-1898 4257,-2068 4517,-2068 4517,-1898 4257,-1898"/>
<image xlink:href="results/v2/route_trees_3764f7_top10_current/molecules/1c1c7505a32127bf.png" width="250px" height="160px" preserveAspectRatio="xMinYMin meet" x="4262" y="-2063"/>
<polygon fill="none" stroke="#bdbdbd" points="4257,-1879 4257,-1898 4517,-1898 4517,-1879 4257,-1879"/>
<text text-anchor="start" x="4297.5" y="-1886.6" font-family="Arial" font-size="8.00">CCOC(=O)/C=C/c1c(&#45;c2ccc(F)cc2)nc(N(C)S(C)...</text>
</g>
<!-- n13 -->
<g id="node14" class="node">
<title>n13</title>
<polygon fill="#edf6e7" stroke="transparent" points="7408,-2484 7408,-2505 7668,-2505 7668,-2484 7408,-2484"/>
<polygon fill="none" stroke="#5f8f3d" points="7408,-2484 7408,-2505 7668,-2505 7668,-2484 7408,-2484"/>
<text text-anchor="start" x="7511.5" y="-2493" font-family="Arial" font-weight="bold" font-size="10.00">TERMINAL</text>
<polygon fill="none" stroke="#5f8f3d" points="7408,-2314 7408,-2484 7668,-2484 7668,-2314 7408,-2314"/>
<image xlink:href="results/v2/route_trees_3764f7_top10_current/molecules/e214417a3034d458.png" width="250px" height="160px" preserveAspectRatio="xMinYMin meet" x="7413" y="-2479"/>
<polygon fill="none" stroke="#5f8f3d" points="7408,-2295 7408,-2314 7668,-2314 7668,-2295 7408,-2295"/>
<text text-anchor="start" x="7504.5" y="-2302.6" font-family="Arial" font-size="8.00">OB(O)c1ccc(F)cc1</text>
</g>
<!-- n14 -->
<g id="node15" class="node">
<title>n14</title>
<polygon fill="#ffffff" stroke="transparent" points="4748,-2068 4748,-2089 5008,-2089 5008,-2068 4748,-2068"/>
<polygon fill="none" stroke="#bdbdbd" points="4748,-2068 4748,-2089 5008,-2089 5008,-2068 4748,-2068"/>
<text text-anchor="start" x="4840" y="-2077" font-family="Arial" font-weight="bold" font-size="10.00">INTERMEDIATE</text>
<polygon fill="none" stroke="#bdbdbd" points="4748,-1898 4748,-2068 5008,-2068 5008,-1898 4748,-1898"/>
<image xlink:href="results/v2/route_trees_3764f7_top10_current/molecules/af0fa5ab6b68df64.png" width="250px" height="160px" preserveAspectRatio="xMinYMin meet" x="4753" y="-2063"/>
<polygon fill="none" stroke="#bdbdbd" points="4748,-1879 4748,-1898 5008,-1898 5008,-1879 4748,-1879"/>
<text text-anchor="start" x="4786" y="-1886.6" font-family="Arial" font-size="8.00">CCOC(=O)/C=C/c1c(Cl)nc(N(C)S(C)(=O)=O)nc1...</text>
</g>
<!-- n15 -->
<g id="node16" class="node">
<title>n15</title>
<polygon fill="#edf6e7" stroke="transparent" points="7408,-2229 7408,-2250 7668,-2250 7668,-2229 7408,-2229"/>
<polygon fill="none" stroke="#5f8f3d" points="7408,-2229 7408,-2250 7668,-2250 7668,-2229 7408,-2229"/>
<text text-anchor="start" x="7511.5" y="-2238" font-family="Arial" font-weight="bold" font-size="10.00">TERMINAL</text>
<polygon fill="none" stroke="#5f8f3d" points="7408,-2059 7408,-2229 7668,-2229 7668,-2059 7408,-2059"/>
<image xlink:href="results/v2/route_trees_3764f7_top10_current/molecules/02fd5b9f346a5db9.png" width="250px" height="160px" preserveAspectRatio="xMinYMin meet" x="7413" y="-2224"/>
<polygon fill="none" stroke="#5f8f3d" points="7408,-2040 7408,-2059 7668,-2059 7668,-2040 7408,-2040"/>
<text text-anchor="start" x="7456.5" y="-2047.6" font-family="Arial" font-size="8.00">CCOC(=O)C=P(c1ccccc1)(c1ccccc1)c1ccccc1</text>
</g>
<!-- n16 -->
<g id="node17" class="node">
<title>n16</title>
<polygon fill="#ffffff" stroke="transparent" points="5169,-2043 5169,-2064 5429,-2064 5429,-2043 5169,-2043"/>
<polygon fill="none" stroke="#bdbdbd" points="5169,-2043 5169,-2064 5429,-2064 5429,-2043 5169,-2043"/>
<text text-anchor="start" x="5261" y="-2052" font-family="Arial" font-weight="bold" font-size="10.00">INTERMEDIATE</text>
<polygon fill="none" stroke="#bdbdbd" points="5169,-1873 5169,-2043 5429,-2043 5429,-1873 5169,-1873"/>
<image xlink:href="results/v2/route_trees_3764f7_top10_current/molecules/4fff0bd9b8e6031a.png" width="250px" height="160px" preserveAspectRatio="xMinYMin meet" x="5174" y="-2038"/>
<polygon fill="none" stroke="#bdbdbd" points="5169,-1854 5169,-1873 5429,-1873 5429,-1854 5169,-1854"/>
<text text-anchor="start" x="5221" y="-1861.6" font-family="Arial" font-size="8.00">CC(C)c1nc(N(C)S(C)(=O)=O)nc(Cl)c1C=O</text>
</g>
<!-- n17 -->
<g id="node18" class="node">
<title>n17</title>
<polygon fill="#ffffff" stroke="transparent" points="5590,-1796 5590,-1817 5850,-1817 5850,-1796 5590,-1796"/>
<polygon fill="none" stroke="#bdbdbd" points="5590,-1796 5590,-1817 5850,-1817 5850,-1796 5590,-1796"/>
<text text-anchor="start" x="5682" y="-1805" font-family="Arial" font-weight="bold" font-size="10.00">INTERMEDIATE</text>
<polygon fill="none" stroke="#bdbdbd" points="5590,-1626 5590,-1796 5850,-1796 5850,-1626 5590,-1626"/>
<image xlink:href="results/v2/route_trees_3764f7_top10_current/molecules/9ee23e7458293734.png" width="250px" height="160px" preserveAspectRatio="xMinYMin meet" x="5595" y="-1791"/>
<polygon fill="none" stroke="#bdbdbd" points="5590,-1607 5590,-1626 5850,-1626 5850,-1607 5590,-1607"/>
<text text-anchor="start" x="5644.5" y="-1614.6" font-family="Arial" font-size="8.00">CC(C)c1nc(N(C)S(C)(=O)=O)nc(Cl)c1CO</text>
</g>
<!-- n18 -->
<g id="node19" class="node">
<title>n18</title>
<polygon fill="#ffffff" stroke="transparent" points="6081,-1734 6081,-1755 6341,-1755 6341,-1734 6081,-1734"/>
<polygon fill="none" stroke="#bdbdbd" points="6081,-1734 6081,-1755 6341,-1755 6341,-1734 6081,-1734"/>
<text text-anchor="start" x="6173" y="-1743" font-family="Arial" font-weight="bold" font-size="10.00">INTERMEDIATE</text>
<polygon fill="none" stroke="#bdbdbd" points="6081,-1564 6081,-1734 6341,-1734 6341,-1564 6081,-1564"/>
<image xlink:href="results/v2/route_trees_3764f7_top10_current/molecules/9184248d5d863429.png" width="250px" height="160px" preserveAspectRatio="xMinYMin meet" x="6086" y="-1729"/>
<polygon fill="none" stroke="#bdbdbd" points="6081,-1545 6081,-1564 6341,-1564 6341,-1545 6081,-1545"/>
<text text-anchor="start" x="6121" y="-1552.6" font-family="Arial" font-size="8.00">CCOC(=O)c1c(Cl)nc(N(C)S(C)(=O)=O)nc1C(C)C</text>
</g>
<!-- n19 -->
<g id="node20" class="node">
<title>n19</title>
<polygon fill="#ffffff" stroke="transparent" points="6502,-1734 6502,-1755 6762,-1755 6762,-1734 6502,-1734"/>
<polygon fill="none" stroke="#bdbdbd" points="6502,-1734 6502,-1755 6762,-1755 6762,-1734 6502,-1734"/>
<text text-anchor="start" x="6594" y="-1743" font-family="Arial" font-weight="bold" font-size="10.00">INTERMEDIATE</text>
<polygon fill="none" stroke="#bdbdbd" points="6502,-1564 6502,-1734 6762,-1734 6762,-1564 6502,-1564"/>
<image xlink:href="results/v2/route_trees_3764f7_top10_current/molecules/61cf0dbc95c82852.png" width="250px" height="160px" preserveAspectRatio="xMinYMin meet" x="6507" y="-1729"/>
<polygon fill="none" stroke="#bdbdbd" points="6502,-1545 6502,-1564 6762,-1564 6762,-1545 6502,-1545"/>
<text text-anchor="start" x="6548" y="-1552.6" font-family="Arial" font-size="8.00">CCOC(=O)c1c(Cl)nc(NS(C)(=O)=O)nc1C(C)C</text>
</g>
<!-- n20 -->
<g id="node21" class="node">
<title>n20</title>
<polygon fill="#edf6e7" stroke="transparent" points="7408,-1209 7408,-1230 7668,-1230 7668,-1209 7408,-1209"/>
<polygon fill="none" stroke="#5f8f3d" points="7408,-1209 7408,-1230 7668,-1230 7668,-1209 7408,-1209"/>
<text text-anchor="start" x="7511.5" y="-1218" font-family="Arial" font-weight="bold" font-size="10.00">TERMINAL</text>
<polygon fill="none" stroke="#5f8f3d" points="7408,-1039 7408,-1209 7668,-1209 7668,-1039 7408,-1039"/>
<image xlink:href="results/v2/route_trees_3764f7_top10_current/molecules/13844228ea43240b.png" width="250px" height="160px" preserveAspectRatio="xMinYMin meet" x="7413" y="-1204"/>
<polygon fill="none" stroke="#5f8f3d" points="7408,-1020 7408,-1039 7668,-1039 7668,-1020 7408,-1020"/>
<text text-anchor="start" x="7533.5" y="-1027.6" font-family="Arial" font-size="8.00">CI</text>
</g>
<!-- n21 -->
<g id="node22" class="node">
<title>n21</title>
<polygon fill="#edf6e7" stroke="transparent" points="7408,-1974 7408,-1995 7668,-1995 7668,-1974 7408,-1974"/>
<polygon fill="none" stroke="#5f8f3d" points="7408,-1974 7408,-1995 7668,-1995 7668,-1974 7408,-1974"/>
<text text-anchor="start" x="7511.5" y="-1983" font-family="Arial" font-weight="bold" font-size="10.00">TERMINAL</text>
<polygon fill="none" stroke="#5f8f3d" points="7408,-1804 7408,-1974 7668,-1974 7668,-1804 7408,-1804"/>
<image xlink:href="results/v2/route_trees_3764f7_top10_current/molecules/e382f87867ea8d4c.png" width="250px" height="160px" preserveAspectRatio="xMinYMin meet" x="7413" y="-1969"/>
<polygon fill="none" stroke="#5f8f3d" points="7408,-1785 7408,-1804 7668,-1804 7668,-1785 7408,-1785"/>
<text text-anchor="start" x="7512" y="-1792.6" font-family="Arial" font-size="8.00">CS(=O)(=O)Cl</text>
</g>
<!-- n22 -->
<g id="node23" class="node">
<title>n22</title>
<polygon fill="#ffffff" stroke="transparent" points="6923,-1719 6923,-1740 7183,-1740 7183,-1719 6923,-1719"/>
<polygon fill="none" stroke="#bdbdbd" points="6923,-1719 6923,-1740 7183,-1740 7183,-1719 6923,-1719"/>
<text text-anchor="start" x="7015" y="-1728" font-family="Arial" font-weight="bold" font-size="10.00">INTERMEDIATE</text>
<polygon fill="none" stroke="#bdbdbd" points="6923,-1549 6923,-1719 7183,-1719 7183,-1549 6923,-1549"/>
<image xlink:href="results/v2/route_trees_3764f7_top10_current/molecules/1acbebb23fff8399.png" width="250px" height="160px" preserveAspectRatio="xMinYMin meet" x="6928" y="-1714"/>
<polygon fill="none" stroke="#bdbdbd" points="6923,-1530 6923,-1549 7183,-1549 7183,-1530 6923,-1530"/>
<text text-anchor="start" x="6991" y="-1537.6" font-family="Arial" font-size="8.00">CCOC(=O)c1c(Cl)nc(N)nc1C(C)C</text>
</g>
<!-- n23 -->
<g id="node24" class="node">
<title>n23</title>
<polygon fill="#edf6e7" stroke="transparent" points="7408,-1719 7408,-1740 7668,-1740 7668,-1719 7408,-1719"/>
<polygon fill="none" stroke="#5f8f3d" points="7408,-1719 7408,-1740 7668,-1740 7668,-1719 7408,-1719"/>
<text text-anchor="start" x="7511.5" y="-1728" font-family="Arial" font-weight="bold" font-size="10.00">TERMINAL</text>
<polygon fill="none" stroke="#5f8f3d" points="7408,-1549 7408,-1719 7668,-1719 7668,-1549 7408,-1549"/>
<image xlink:href="results/v2/route_trees_3764f7_top10_current/molecules/080a31fd9fe01d55.png" width="250px" height="160px" preserveAspectRatio="xMinYMin meet" x="7413" y="-1714"/>
<polygon fill="none" stroke="#5f8f3d" points="7408,-1530 7408,-1549 7668,-1549 7668,-1530 7408,-1530"/>
<text text-anchor="start" x="7491" y="-1537.6" font-family="Arial" font-size="8.00">CCOC(=O)CC(=O)C(C)C</text>
</g>
<!-- n24 -->
<g id="node25" class="node">
<title>n24</title>
<polygon fill="#edf6e7" stroke="transparent" points="7408,-1464 7408,-1485 7668,-1485 7668,-1464 7408,-1464"/>
<polygon fill="none" stroke="#5f8f3d" points="7408,-1464 7408,-1485 7668,-1485 7668,-1464 7408,-1464"/>
<text text-anchor="start" x="7511.5" y="-1473" font-family="Arial" font-weight="bold" font-size="10.00">TERMINAL</text>
<polygon fill="none" stroke="#5f8f3d" points="7408,-1294 7408,-1464 7668,-1464 7668,-1294 7408,-1294"/>
<image xlink:href="results/v2/route_trees_3764f7_top10_current/molecules/719befc7e9f897e9.png" width="250px" height="160px" preserveAspectRatio="xMinYMin meet" x="7413" y="-1459"/>
<polygon fill="none" stroke="#5f8f3d" points="7408,-1275 7408,-1294 7668,-1294 7668,-1275 7408,-1275"/>
<text text-anchor="start" x="7520.5" y="-1282.6" font-family="Arial" font-size="8.00">N=C(N)N</text>
</g>
<!-- n25 -->
<g id="node26" class="node">
<title>n25</title>
<polygon fill="#edf6e7" stroke="transparent" points="7408,-699 7408,-720 7668,-720 7668,-699 7408,-699"/>
<polygon fill="none" stroke="#5f8f3d" points="7408,-699 7408,-720 7668,-720 7668,-699 7408,-699"/>
<text text-anchor="start" x="7511.5" y="-708" font-family="Arial" font-weight="bold" font-size="10.00">TERMINAL</text>
<polygon fill="none" stroke="#5f8f3d" points="7408,-529 7408,-699 7668,-699 7668,-529 7408,-529"/>
<image xlink:href="results/v2/route_trees_3764f7_top10_current/molecules/87d60fa4fabb6d8b.png" width="250px" height="160px" preserveAspectRatio="xMinYMin meet" x="7413" y="-694"/>
<polygon fill="none" stroke="#5f8f3d" points="7408,-510 7408,-529 7668,-529 7668,-510 7408,-510"/>
<text text-anchor="start" x="7506" y="-517.6" font-family="Arial" font-size="8.00">O=C(O)CC(=O)O</text>
</g>
<!-- n26 -->
<g id="node27" class="node">
<title>n26</title>
<polygon fill="#edf6e7" stroke="transparent" points="7408,-444 7408,-465 7668,-465 7668,-444 7408,-444"/>
<polygon fill="none" stroke="#5f8f3d" points="7408,-444 7408,-465 7668,-465 7668,-444 7408,-444"/>
<text text-anchor="start" x="7511.5" y="-453" font-family="Arial" font-weight="bold" font-size="10.00">TERMINAL</text>
<polygon fill="none" stroke="#5f8f3d" points="7408,-274 7408,-444 7668,-444 7668,-274 7408,-274"/>
<image xlink:href="results/v2/route_trees_3764f7_top10_current/molecules/550729bf898e9fdd.png" width="250px" height="160px" preserveAspectRatio="xMinYMin meet" x="7413" y="-439"/>
<polygon fill="none" stroke="#5f8f3d" points="7408,-255 7408,-274 7668,-274 7668,-255 7408,-255"/>
<text text-anchor="start" x="7531.5" y="-262.6" font-family="Arial" font-size="8.00">CO</text>
</g>
</g>
</svg>
