<?xml version="1.0" encoding="UTF-8" standalone="no"?>
<!DOCTYPE svg PUBLIC "-//W3C//DTD SVG 1.1//EN"
 "http://www.w3.org/Graphics/SVG/1.1/DTD/svg11.dtd">
<!-- Generated by graphviz version 2.43.0 (0)
 -->
<!-- Title: RouteTree Pages: 1 -->
<svg width="8436pt" height="3088pt"
 viewBox="0.00 0.00 8436.40 3088.40" xmlns="http://www.w3.org/2000/svg" xmlns:xlink="http://www.w3.org/1999/xlink">
<g id="graph0" class="graph" transform="scale(1 1) rotate(0) translate(25.2 3063.2)">
<title>RouteTree</title>
<polygon fill="white" stroke="transparent" points="-25.2,25.2 -25.2,-3063.2 8411.2,-3063.2 8411.2,25.2 -25.2,25.2"/>
<text text-anchor="start" x="3745.5" y="-3022.8" font-family="Times,serif" font-size="14.00">Route 05 | 18 steps | score 0.00131 | triage_fragment | acylating_piece_present, aryl_coupling_hint, carrier_reagent_terminal</text>
<!-- n0&#45;&gt;n1 -->
<g id="edge1" class="edge">
<title>n0&#45;&gt;n1</title>
<path fill="none" stroke="#333333" stroke-width="1.2" d="M260.26,-177.89C326.7,-196.86 407.65,-219.96 475.03,-239.19"/>
<polygon fill="#333333" stroke="#333333" stroke-width="1.2" points="474.52,-241.59 481.92,-241.16 475.86,-236.88 474.52,-241.59"/>
<text text-anchor="middle" x="371" y="-231.8" font-family="Arial" font-size="9.00">S1.1 | enzymatic | EC 1.1.1.100 | 33 C</text>
</g>
<!-- n0&#45;&gt;n2 -->
<g id="edge2" class="edge">
<title>n0&#45;&gt;n2</title>
<path fill="none" stroke="#333333" stroke-width="1.2" d="M260.17,-126.05C356.68,-116.15 491.92,-105 611,-105 611,-105 611,-105 7836,-105 7930.27,-105 8036.46,-105 8118.36,-105"/>
<polygon fill="#333333" stroke="#333333" stroke-width="1.2" points="8118.7,-107.45 8125.7,-105 8118.7,-102.55 8118.7,-107.45"/>
<text text-anchor="middle" x="4328" y="-107.8" font-family="Arial" font-size="9.00">S1.2 | enzymatic | EC 1.1.1.100 | 33 C</text>
</g>
<!-- n1&#45;&gt;n3 -->
<g id="edge3" class="edge">
<title>n1&#45;&gt;n3</title>
<path fill="none" stroke="#333333" stroke-width="1.2" d="M742.06,-288.8C811.14,-294.58 896.21,-301.7 966.4,-307.57"/>
<polygon fill="#333333" stroke="#333333" stroke-width="1.2" points="966.4,-310.03 973.58,-308.17 966.81,-305.15 966.4,-310.03"/>
<text text-anchor="middle" x="858" y="-306.8" font-family="Arial" font-size="9.00">S2.1 | enzymatic | EC 1.14.14.155 | 77 C</text>
</g>
<!-- n3&#45;&gt;n4 -->
<g id="edge4" class="edge">
<title>n3&#45;&gt;n4</title>
<path fill="none" stroke="#333333" stroke-width="1.2" d="M1234.29,-330.23C1298.41,-335.8 1375.85,-342.53 1440.88,-348.18"/>
<polygon fill="#333333" stroke="#333333" stroke-width="1.2" points="1440.75,-350.62 1447.93,-348.79 1441.17,-345.74 1440.75,-350.62"/>
<text text-anchor="middle" x="1341" y="-347.8" font-family="Arial" font-size="9.00">S3.1 | enzymatic | EC 5.3.3.1 | &#45;60 C</text>
</g>
<!-- n4&#45;&gt;n5 -->
<g id="edge5" class="edge">
<title>n4&#45;&gt;n5</title>
<path fill="none" stroke="#333333" stroke-width="1.2" d="M1708.26,-406.59C1774.7,-430.54 1855.65,-459.71 1923.03,-483.99"/>
<polygon fill="#333333" stroke="#333333" stroke-width="1.2" points="1922.51,-486.41 1929.92,-486.48 1924.17,-481.8 1922.51,-486.41"/>
<text text-anchor="middle" x="1819" y="-474.8" font-family="Arial" font-size="9.00">S4.1 | enzymatic | EC 1.13.11.5 | 21 C</text>
</g>
<!-- n4&#45;&gt;n6 -->
<g id="edge6" class="edge">
<title>n4&#45;&gt;n6</title>
<path fill="none" stroke="#333333" stroke-width="1.2" d="M1708.11,-360C1848.86,-360 2073.11,-360 2216.64,-360"/>
<polygon fill="#333333" stroke="#333333" stroke-width="1.2" points="2216.84,-362.45 2223.84,-360 2216.84,-357.55 2216.84,-362.45"/>
<text text-anchor="middle" x="1819" y="-362.8" font-family="Arial" font-size="9.00">S4.2 | enzymatic | EC 1.13.11.5 | 21 C</text>
</g>
<!-- n5&#45;&gt;n7 -->
<g id="edge7" class="edge">
<title>n5&#45;&gt;n7</title>
<path fill="none" stroke="#333333" stroke-width="1.2" d="M2190.33,-542.05C2285.27,-548.69 2413.98,-557.7 2510.56,-564.45"/>
<polygon fill="#333333" stroke="#333333" stroke-width="1.2" points="2510.6,-566.91 2517.75,-564.96 2510.94,-562.02 2510.6,-566.91"/>
<text text-anchor="middle" x="2354" y="-563.8" font-family="Arial" font-size="9.00">S5.1 | enzymatic | EC 5.3.3.&#45; | 46 C</text>
</g>
<!-- n6&#45;&gt;n29 -->
<g id="edge29" class="edge">
<title>n6&#45;&gt;n29</title>
<path fill="none" stroke="#333333" stroke-width="1.2" d="M2484,-360C2591.74,-360 2749.38,-360 2887,-360 2887,-360 2887,-360 7836,-360 7930.27,-360 8036.46,-360 8118.36,-360"/>
<polygon fill="#333333" stroke="#333333" stroke-width="1.2" points="8118.7,-362.45 8125.7,-360 8118.7,-357.55 8118.7,-362.45"/>
<text text-anchor="middle" x="5299.5" y="-362.8" font-family="Arial" font-size="9.00">S18.1 | enzymatic | EC 3.1.1.&#45; | 130 C</text>
</g>
<!-- n7&#45;&gt;n8 -->
<g id="edge8" class="edge">
<title>n7&#45;&gt;n8</title>
<path fill="none" stroke="#333333" stroke-width="1.2" d="M2778.04,-585.07C2843.8,-590.71 2923.77,-597.57 2990.55,-603.3"/>
<polygon fill="#333333" stroke="#333333" stroke-width="1.2" points="2990.61,-605.76 2997.79,-603.92 2991.03,-600.88 2990.61,-605.76"/>
<text text-anchor="middle" x="2888" y="-602.8" font-family="Arial" font-size="9.00">S6.1 | ChemEnzyRetroPlanner | 35 C</text>
</g>
<!-- n8&#45;&gt;n9 -->
<g id="edge9" class="edge">
<title>n8&#45;&gt;n9</title>
<path fill="none" stroke="#333333" stroke-width="1.2" d="M3258.08,-661.82C3323.7,-685.62 3403.43,-714.53 3470,-738.68"/>
<polygon fill="#333333" stroke="#333333" stroke-width="1.2" points="3469.4,-741.06 3476.81,-741.15 3471.07,-736.46 3469.4,-741.06"/>
<text text-anchor="middle" x="3367.5" y="-729.8" font-family="Arial" font-size="9.00">S7.1 | enzymatic | EC 4.1.2.47 | &#45;70 C</text>
</g>
<!-- n8&#45;&gt;n10 -->
<g id="edge10" class="edge">
<title>n8&#45;&gt;n10</title>
<path fill="none" stroke="#333333" stroke-width="1.2" d="M3258.06,-615C3354.03,-615 3488.2,-615 3606,-615 3606,-615 3606,-615 7836,-615 7930.27,-615 8036.46,-615 8118.36,-615"/>
<polygon fill="#333333" stroke="#333333" stroke-width="1.2" points="8118.7,-617.45 8125.7,-615 8118.7,-612.55 8118.7,-617.45"/>
<text text-anchor="middle" x="5781.5" y="-617.8" font-family="Arial" font-size="9.00">S7.2 | enzymatic | EC 4.1.2.47 | &#45;70 C</text>
</g>
<!-- n9&#45;&gt;n11 -->
<g id="edge11" class="edge">
<title>n9&#45;&gt;n11</title>
<path fill="none" stroke="#333333" stroke-width="1.2" d="M3663.07,-893.29C3753.98,-1067.14 3934.67,-1412.63 4027.68,-1590.48"/>
<polygon fill="#333333" stroke="#333333" stroke-width="1.2" points="4025.54,-1591.67 4030.95,-1596.74 4029.88,-1589.4 4025.54,-1591.67"/>
<text text-anchor="middle" x="3847" y="-1382.8" font-family="Arial" font-size="9.00">S8.1 | ChemEnzyRetroPlanner | 22 C</text>
</g>
<!-- n11&#45;&gt;n12 -->
<g id="edge12" class="edge">
<title>n11&#45;&gt;n12</title>
<path fill="none" stroke="#333333" stroke-width="1.2" d="M4149.04,-1807.03C4239.97,-1963.51 4410.25,-2256.54 4503.28,-2416.62"/>
<polygon fill="#333333" stroke="#333333" stroke-width="1.2" points="4501.19,-2417.91 4506.83,-2422.73 4505.43,-2415.45 4501.19,-2417.91"/>
<text text-anchor="middle" x="4328" y="-2239.8" font-family="Arial" font-size="9.00">S9.1 | template | &#45;58 C</text>
</g>
<!-- n12&#45;&gt;n13 -->
<g id="edge13" class="edge">
<title>n12&#45;&gt;n13</title>
<path fill="none" stroke="#333333" stroke-width="1.2" d="M4640.03,-2633.14C4724.67,-2746.22 4878.42,-2910 5059,-2910 5059,-2910 5059,-2910 7836,-2910 7930.27,-2910 8036.46,-2910 8118.36,-2910"/>
<polygon fill="#333333" stroke="#333333" stroke-width="1.2" points="8118.7,-2912.45 8125.7,-2910 8118.7,-2907.55 8118.7,-2912.45"/>
<text text-anchor="middle" x="6506" y="-2912.8" font-family="Arial" font-size="9.00">S10.1 | ChemEnzyRetroPlanner | 105 C</text>
</g>
<!-- n12&#45;&gt;n14 -->
<g id="edge14" class="edge">
<title>n12&#45;&gt;n14</title>
<path fill="none" stroke="#333333" stroke-width="1.2" d="M4699.12,-2528C4767.92,-2528 4852.54,-2528 4922.43,-2528"/>
<polygon fill="#333333" stroke="#333333" stroke-width="1.2" points="4922.58,-2530.45 4929.58,-2528 4922.58,-2525.55 4922.58,-2530.45"/>
<text text-anchor="middle" x="4814.5" y="-2530.8" font-family="Arial" font-size="9.00">S10.2 | ChemEnzyRetroPlanner | 105 C</text>
</g>
<!-- n14&#45;&gt;n15 -->
<g id="edge15" class="edge">
<title>n14&#45;&gt;n15</title>
<path fill="none" stroke="#333333" stroke-width="1.2" d="M5190.14,-2581.86C5284.74,-2616.47 5417.17,-2655 5538,-2655 5538,-2655 5538,-2655 7836,-2655 7930.27,-2655 8036.46,-2655 8118.36,-2655"/>
<polygon fill="#333333" stroke="#333333" stroke-width="1.2" points="8118.7,-2657.45 8125.7,-2655 8118.7,-2652.55 8118.7,-2657.45"/>
<text text-anchor="middle" x="6716.5" y="-2657.8" font-family="Arial" font-size="9.00">S11.1 | template | 57 C</text>
</g>
<!-- n14&#45;&gt;n16 -->
<g id="edge16" class="edge">
<title>n14&#45;&gt;n16</title>
<path fill="none" stroke="#333333" stroke-width="1.2" d="M5190.08,-2493.36C5255.7,-2475.75 5335.43,-2454.36 5402,-2436.49"/>
<polygon fill="#333333" stroke="#333333" stroke-width="1.2" points="5402.69,-2438.85 5408.81,-2434.67 5401.42,-2434.11 5402.69,-2438.85"/>
<text text-anchor="middle" x="5299.5" y="-2484.8" font-family="Arial" font-size="9.00">S11.2 | template | 57 C</text>
</g>
<!-- n16&#45;&gt;n17 -->
<g id="edge17" class="edge">
<title>n16&#45;&gt;n17</title>
<path fill="none" stroke="#333333" stroke-width="1.2" d="M5669.15,-2400C5766.43,-2400 5903.09,-2400 6023,-2400 6023,-2400 6023,-2400 7836,-2400 7930.27,-2400 8036.46,-2400 8118.36,-2400"/>
<polygon fill="#333333" stroke="#333333" stroke-width="1.2" points="8118.7,-2402.45 8125.7,-2400 8118.7,-2397.55 8118.7,-2402.45"/>
<text text-anchor="middle" x="6927" y="-2402.8" font-family="Arial" font-size="9.00">S12.1 | ChemEnzyRetroPlanner | 38 C</text>
</g>
<!-- n16&#45;&gt;n18 -->
<g id="edge18" class="edge">
<title>n16&#45;&gt;n18</title>
<path fill="none" stroke="#333333" stroke-width="1.2" d="M5669.12,-2331.83C5736.53,-2296.24 5818.97,-2252.72 5887.31,-2216.64"/>
<polygon fill="#333333" stroke="#333333" stroke-width="1.2" points="5888.84,-2218.6 5893.88,-2213.17 5886.55,-2214.27 5888.84,-2218.6"/>
<text text-anchor="middle" x="5781.5" y="-2312.8" font-family="Arial" font-size="9.00">S12.2 | ChemEnzyRetroPlanner | 38 C</text>
</g>
<!-- n18&#45;&gt;n19 -->
<g id="edge19" class="edge">
<title>n18&#45;&gt;n19</title>
<path fill="none" stroke="#333333" stroke-width="1.2" d="M6154.11,-2145C6250.74,-2145 6386.15,-2145 6505,-2145 6505,-2145 6505,-2145 7836,-2145 7930.27,-2145 8036.46,-2145 8118.36,-2145"/>
<polygon fill="#333333" stroke="#333333" stroke-width="1.2" points="8118.7,-2147.45 8125.7,-2145 8118.7,-2142.55 8118.7,-2147.45"/>
<text text-anchor="middle" x="7168" y="-2147.8" font-family="Arial" font-size="9.00">S13.1 | enzymatic | EC 1.5.3.12 | 39 C</text>
</g>
<!-- n18&#45;&gt;n20 -->
<g id="edge20" class="edge">
<title>n18&#45;&gt;n20</title>
<path fill="none" stroke="#333333" stroke-width="1.2" d="M6154.26,-2056.67C6220.97,-2011.08 6302.3,-1955.51 6369.85,-1909.36"/>
<polygon fill="#333333" stroke="#333333" stroke-width="1.2" points="6371.53,-1911.17 6375.92,-1905.2 6368.76,-1907.13 6371.53,-1911.17"/>
<text text-anchor="middle" x="6265" y="-2031.8" font-family="Arial" font-size="9.00">S13.2 | enzymatic | EC 1.5.3.12 | 39 C</text>
</g>
<!-- n20&#45;&gt;n21 -->
<g id="edge21" class="edge">
<title>n20&#45;&gt;n21</title>
<path fill="none" stroke="#333333" stroke-width="1.2" d="M6636.13,-1817C6684.83,-1817 6740.36,-1817 6789.7,-1817"/>
<polygon fill="#333333" stroke="#333333" stroke-width="1.2" points="6789.93,-1819.45 6796.93,-1817 6789.93,-1814.55 6789.93,-1819.45"/>
<text text-anchor="middle" x="6716.5" y="-1819.8" font-family="Arial" font-size="9.00">S14.1 | template | 32 C</text>
</g>
<!-- n20&#45;&gt;n22 -->
<g id="edge22" class="edge">
<title>n20&#45;&gt;n22</title>
<path fill="none" stroke="#333333" stroke-width="1.2" d="M6506.52,-1711.58C6511.48,-1464.74 6561.26,-870 6926,-870 6926,-870 6926,-870 7836,-870 7930.27,-870 8036.46,-870 8118.36,-870"/>
<polygon fill="#333333" stroke="#333333" stroke-width="1.2" points="8118.7,-872.45 8125.7,-870 8118.7,-867.55 8118.7,-872.45"/>
<text text-anchor="middle" x="7409" y="-872.8" font-family="Arial" font-size="9.00">S14.2 | template | 32 C</text>
</g>
<!-- n21&#45;&gt;n23 -->
<g id="edge23" class="edge">
<title>n21&#45;&gt;n23</title>
<path fill="none" stroke="#333333" stroke-width="1.2" d="M7057.05,-1824.1C7308.38,-1837.93 7861.35,-1868.34 8118.51,-1882.49"/>
<polygon fill="#333333" stroke="#333333" stroke-width="1.2" points="8118.53,-1884.95 8125.65,-1882.88 8118.8,-1880.05 8118.53,-1884.95"/>
<text text-anchor="middle" x="7622" y="-1859.8" font-family="Arial" font-size="9.00">S15.1 | template | 61 C</text>
</g>
<!-- n21&#45;&gt;n24 -->
<g id="edge24" class="edge">
<title>n21&#45;&gt;n24</title>
<path fill="none" stroke="#333333" stroke-width="1.2" d="M7057.26,-1767.99C7123.7,-1742.8 7204.65,-1712.1 7272.03,-1686.56"/>
<polygon fill="#333333" stroke="#333333" stroke-width="1.2" points="7273.25,-1688.71 7278.92,-1683.94 7271.51,-1684.13 7273.25,-1688.71"/>
<text text-anchor="middle" x="7168" y="-1754.8" font-family="Arial" font-size="9.00">S15.2 | template | 61 C</text>
</g>
<!-- n24&#45;&gt;n25 -->
<g id="edge25" class="edge">
<title>n24&#45;&gt;n25</title>
<path fill="none" stroke="#333333" stroke-width="1.2" d="M7539.26,-1635C7695.97,-1635 7958.88,-1635 8118.7,-1635"/>
<polygon fill="#333333" stroke="#333333" stroke-width="1.2" points="8118.76,-1637.45 8125.76,-1635 8118.76,-1632.55 8118.76,-1637.45"/>
<text text-anchor="middle" x="7835" y="-1637.8" font-family="Arial" font-size="9.00">S16.1 | template | 118 C</text>
</g>
<!-- n24&#45;&gt;n26 -->
<g id="edge26" class="edge">
<title>n24&#45;&gt;n26</title>
<path fill="none" stroke="#333333" stroke-width="1.2" d="M7539.23,-1557.28C7589.67,-1526.94 7647.53,-1492.15 7698.56,-1461.46"/>
<polygon fill="#333333" stroke="#333333" stroke-width="1.2" points="7700.01,-1463.44 7704.74,-1457.74 7697.48,-1459.25 7700.01,-1463.44"/>
<text text-anchor="middle" x="7622" y="-1532.8" font-family="Arial" font-size="9.00">S16.2 | template | 118 C</text>
</g>
<!-- n26&#45;&gt;n27 -->
<g id="edge27" class="edge">
<title>n26&#45;&gt;n27</title>
<path fill="none" stroke="#333333" stroke-width="1.2" d="M7965.13,-1380C8013.83,-1380 8069.36,-1380 8118.7,-1380"/>
<polygon fill="#333333" stroke="#333333" stroke-width="1.2" points="8118.93,-1382.45 8125.93,-1380 8118.93,-1377.55 8118.93,-1382.45"/>
<text text-anchor="middle" x="8045.5" y="-1382.8" font-family="Arial" font-size="9.00">S17.1 | template | 84 C</text>
</g>
<!-- n26&#45;&gt;n28 -->
<g id="edge28" class="edge">
<title>n26&#45;&gt;n28</title>
<path fill="none" stroke="#333333" stroke-width="1.2" d="M7965.13,-1301.41C8014.23,-1271.53 8070.28,-1237.42 8119.91,-1207.21"/>
<polygon fill="#333333" stroke="#333333" stroke-width="1.2" points="8121.23,-1209.28 8125.93,-1203.55 8118.68,-1205.1 8121.23,-1209.28"/>
<text text-anchor="middle" x="8045.5" y="-1277.8" font-family="Arial" font-size="9.00">S17.2 | template | 84 C</text>
</g>
<!-- n0 -->
<g id="node1" class="node">
<title>n0</title>
<polygon fill="#f0f0f0" stroke="transparent" points="0,-225 0,-246 260,-246 260,-225 0,-225"/>
<polygon fill="none" stroke="#111111" points="0,-225 0,-246 260,-246 260,-225 0,-225"/>
<text text-anchor="start" x="109.5" y="-234" font-family="Arial" font-weight="bold" font-size="10.00">TARGET</text>
<polygon fill="none" stroke="#111111" points="0,-55 0,-225 260,-225 260,-55 0,-55"/>
<image xlink:href="results/v2/route_trees_3764f7_top10_current/molecules/0b6996454ae09fe2.png" width="250px" height="160px" preserveAspectRatio="xMinYMin meet" x="5" y="-220"/>
<polygon fill="none" stroke="#111111" points="0,-36 0,-55 260,-55 260,-36 0,-36"/>
<text text-anchor="start" x="28" y="-43.6" font-family="Arial" font-size="8.00">CC(C)C1=NC(=NC(=C1/C=C/[C@H](C[C@H](CC(=O...</text>
</g>
<!-- n1 -->
<g id="node2" class="node">
<title>n1</title>
<polygon fill="#ffffff" stroke="transparent" points="482,-362 482,-383 742,-383 742,-362 482,-362"/>
<polygon fill="none" stroke="#bdbdbd" points="482,-362 482,-383 742,-383 742,-362 482,-362"/>
<text text-anchor="start" x="574" y="-371" font-family="Arial" font-weight="bold" font-size="10.00">INTERMEDIATE</text>
<polygon fill="none" stroke="#bdbdbd" points="482,-192 482,-362 742,-362 742,-192 482,-192"/>
<image xlink:href="results/v2/route_trees_3764f7_top10_current/molecules/6a59dcc7d161d513.png" width="250px" height="160px" preserveAspectRatio="xMinYMin meet" x="487" y="-357"/>
<polygon fill="none" stroke="#bdbdbd" points="482,-173 482,-192 742,-192 742,-173 482,-173"/>
<text text-anchor="start" x="524" y="-180.6" font-family="Arial" font-size="8.00">CC(C)c1nc(N(C)S(C)(=O)=O)nc(&#45;c2ccc(F)cc2)...</text>
</g>
<!-- n2 -->
<g id="node3" class="node">
<title>n2</title>
<polygon fill="#edf6e7" stroke="transparent" points="8126,-189 8126,-210 8386,-210 8386,-189 8126,-189"/>
<polygon fill="none" stroke="#5f8f3d" points="8126,-189 8126,-210 8386,-210 8386,-189 8126,-189"/>
<text text-anchor="start" x="8229.5" y="-198" font-family="Arial" font-weight="bold" font-size="10.00">TERMINAL</text>
<polygon fill="none" stroke="#5f8f3d" points="8126,-19 8126,-189 8386,-189 8386,-19 8126,-19"/>
<image xlink:href="results/v2/route_trees_3764f7_top10_current/molecules/5c7f96ee7e82d868.png" width="250px" height="160px" preserveAspectRatio="xMinYMin meet" x="8131" y="-184"/>
<polygon fill="none" stroke="#5f8f3d" points="8126,0 8126,-19 8386,-19 8386,0 8126,0"/>
<text text-anchor="start" x="8246" y="-7.6" font-family="Arial" font-size="8.00">[OH&#45;]</text>
</g>
<!-- n3 -->
<g id="node4" class="node">
<title>n3</title>
<polygon fill="#ffffff" stroke="transparent" points="974,-403 974,-424 1234,-424 1234,-403 974,-403"/>
<polygon fill="none" stroke="#bdbdbd" points="974,-403 974,-424 1234,-424 1234,-403 974,-403"/>
<text text-anchor="start" x="1066" y="-412" font-family="Arial" font-weight="bold" font-size="10.00">INTERMEDIATE</text>
<polygon fill="none" stroke="#bdbdbd" points="974,-233 974,-403 1234,-403 1234,-233 974,-233"/>
<image xlink:href="results/v2/route_trees_3764f7_top10_current/molecules/e29273f4eef25340.png" width="250px" height="160px" preserveAspectRatio="xMinYMin meet" x="979" y="-398"/>
<polygon fill="none" stroke="#bdbdbd" points="974,-214 974,-233 1234,-233 1234,-214 974,-214"/>
<text text-anchor="start" x="1009.5" y="-221.6" font-family="Arial" font-size="8.00">COC(=O)C[C@H](O)C[C@H](O)/C=C/c1c(&#45;c2ccc(...</text>
</g>
<!-- n4 -->
<g id="node5" class="node">
<title>n4</title>
<polygon fill="#ffffff" stroke="transparent" points="1448,-444 1448,-465 1708,-465 1708,-444 1448,-444"/>
<polygon fill="none" stroke="#bdbdbd" points="1448,-444 1448,-465 1708,-465 1708,-444 1448,-444"/>
<text text-anchor="start" x="1540" y="-453" font-family="Arial" font-weight="bold" font-size="10.00">INTERMEDIATE</text>
<polygon fill="none" stroke="#bdbdbd" points="1448,-274 1448,-444 1708,-444 1708,-274 1448,-274"/>
<image xlink:href="results/v2/route_trees_3764f7_top10_current/molecules/e540e1696959b9d5.png" width="250px" height="160px" preserveAspectRatio="xMinYMin meet" x="1453" y="-439"/>
<polygon fill="none" stroke="#bdbdbd" points="1448,-255 1448,-274 1708,-274 1708,-255 1448,-255"/>
<text text-anchor="start" x="1484.5" y="-262.6" font-family="Arial" font-size="8.00">COC(=O)CC(=O)C[C@H](O)/C=C/c1c(&#45;c2ccc(F)c...</text>
</g>
<!-- n5 -->
<g id="node6" class="node">
<title>n5</title>
<polygon fill="#ffffff" stroke="transparent" points="1930,-617 1930,-638 2190,-638 2190,-617 1930,-617"/>
<polygon fill="none" stroke="#bdbdbd" points="1930,-617 1930,-638 2190,-638 2190,-617 1930,-617"/>
<text text-anchor="start" x="2022" y="-626" font-family="Arial" font-weight="bold" font-size="10.00">INTERMEDIATE</text>
<polygon fill="none" stroke="#bdbdbd" points="1930,-447 1930,-617 2190,-617 2190,-447 1930,-447"/>
<image xlink:href="results/v2/route_trees_3764f7_top10_current/molecules/0205dc34e441121a.png" width="250px" height="160px" preserveAspectRatio="xMinYMin meet" x="1935" y="-612"/>
<polygon fill="none" stroke="#bdbdbd" points="1930,-428 1930,-447 2190,-447 2190,-428 1930,-428"/>
<text text-anchor="start" x="1972" y="-435.6" font-family="Arial" font-size="8.00">CC(C)c1nc(N(C)S(C)(=O)=O)nc(&#45;c2ccc(F)cc2)...</text>
</g>
<!-- n6 -->
<g id="node7" class="node">
<title>n6</title>
<polygon fill="#ffffff" stroke="transparent" points="2224,-444 2224,-465 2484,-465 2484,-444 2224,-444"/>
<polygon fill="none" stroke="#bdbdbd" points="2224,-444 2224,-465 2484,-465 2484,-444 2224,-444"/>
<text text-anchor="start" x="2316" y="-453" font-family="Arial" font-weight="bold" font-size="10.00">INTERMEDIATE</text>
<polygon fill="none" stroke="#bdbdbd" points="2224,-274 2224,-444 2484,-444 2484,-274 2224,-274"/>
<image xlink:href="results/v2/route_trees_3764f7_top10_current/molecules/6597368e79aef144.png" width="250px" height="160px" preserveAspectRatio="xMinYMin meet" x="2229" y="-439"/>
<polygon fill="none" stroke="#bdbdbd" points="2224,-255 2224,-274 2484,-274 2484,-255 2224,-255"/>
<text text-anchor="start" x="2315.5" y="-262.6" font-family="Arial" font-size="8.00">COC(=O)CC(=O)[O&#45;]</text>
</g>
<!-- n7 -->
<g id="node8" class="node">
<title>n7</title>
<polygon fill="#ffffff" stroke="transparent" points="2518,-658 2518,-679 2778,-679 2778,-658 2518,-658"/>
<polygon fill="none" stroke="#bdbdbd" points="2518,-658 2518,-679 2778,-679 2778,-658 2518,-658"/>
<text text-anchor="start" x="2610" y="-667" font-family="Arial" font-weight="bold" font-size="10.00">INTERMEDIATE</text>
<polygon fill="none" stroke="#bdbdbd" points="2518,-488 2518,-658 2778,-658 2778,-488 2518,-488"/>
<image xlink:href="results/v2/route_trees_3764f7_top10_current/molecules/29c4845e89e4713c.png" width="250px" height="160px" preserveAspectRatio="xMinYMin meet" x="2523" y="-653"/>
<polygon fill="none" stroke="#bdbdbd" points="2518,-469 2518,-488 2778,-488 2778,-469 2518,-469"/>
<text text-anchor="start" x="2560" y="-476.6" font-family="Arial" font-size="8.00">CC(C)c1nc(N(C)S(C)(=O)=O)nc(&#45;c2ccc(F)cc2)...</text>
</g>
<!-- n8 -->
<g id="node9" class="node">
<title>n8</title>
<polygon fill="#ffffff" stroke="transparent" points="2998,-699 2998,-720 3258,-720 3258,-699 2998,-699"/>
<polygon fill="none" stroke="#bdbdbd" points="2998,-699 2998,-720 3258,-720 3258,-699 2998,-699"/>
<text text-anchor="start" x="3090" y="-708" font-family="Arial" font-weight="bold" font-size="10.00">INTERMEDIATE</text>
<polygon fill="none" stroke="#bdbdbd" points="2998,-529 2998,-699 3258,-699 3258,-529 2998,-529"/>
<image xlink:href="results/v2/route_trees_3764f7_top10_current/molecules/ca79ac7f201cbb6a.png" width="250px" height="160px" preserveAspectRatio="xMinYMin meet" x="3003" y="-694"/>
<polygon fill="none" stroke="#bdbdbd" points="2998,-510 2998,-529 3258,-529 3258,-510 2998,-510"/>
<text text-anchor="start" x="3040" y="-517.6" font-family="Arial" font-size="8.00">CC(C)c1nc(N(C)S(C)(=O)=O)nc(&#45;c2ccc(F)cc2)...</text>
</g>
<!-- n9 -->
<g id="node10" class="node">
<title>n9</title>
<polygon fill="#ffffff" stroke="transparent" points="3477,-872 3477,-893 3737,-893 3737,-872 3477,-872"/>
<polygon fill="none" stroke="#bdbdbd" points="3477,-872 3477,-893 3737,-893 3737,-872 3477,-872"/>
<text text-anchor="start" x="3569" y="-881" font-family="Arial" font-weight="bold" font-size="10.00">INTERMEDIATE</text>
<polygon fill="none" stroke="#bdbdbd" points="3477,-702 3477,-872 3737,-872 3737,-702 3477,-702"/>
<image xlink:href="results/v2/route_trees_3764f7_top10_current/molecules/b2eed2c3d5baf19d.png" width="250px" height="160px" preserveAspectRatio="xMinYMin meet" x="3482" y="-867"/>
<polygon fill="none" stroke="#bdbdbd" points="3477,-683 3477,-702 3737,-702 3737,-683 3477,-683"/>
<text text-anchor="start" x="3519" y="-690.6" font-family="Arial" font-size="8.00">CC(C)c1nc(N(C)S(C)(=O)=O)nc(&#45;c2ccc(F)cc2)...</text>
</g>
<!-- n10 -->
<g id="node11" class="node">
<title>n10</title>
<polygon fill="#edf6e7" stroke="transparent" points="8126,-699 8126,-720 8386,-720 8386,-699 8126,-699"/>
<polygon fill="none" stroke="#5f8f3d" points="8126,-699 8126,-720 8386,-720 8386,-699 8126,-699"/>
<text text-anchor="start" x="8229.5" y="-708" font-family="Arial" font-weight="bold" font-size="10.00">TERMINAL</text>
<polygon fill="none" stroke="#5f8f3d" points="8126,-529 8126,-699 8386,-699 8386,-529 8126,-529"/>
<image xlink:href="results/v2/route_trees_3764f7_top10_current/molecules/d150779d88df411e.png" width="250px" height="160px" preserveAspectRatio="xMinYMin meet" x="8131" y="-694"/>
<polygon fill="none" stroke="#5f8f3d" points="8126,-510 8126,-529 8386,-529 8386,-510 8126,-510"/>
<text text-anchor="start" x="8220.5" y="-517.6" font-family="Arial" font-size="8.00">CC(=O)OC(C)(C)C</text>
</g>
<!-- n11 -->
<g id="node12" class="node">
<title>n11</title>
<polygon fill="#ffffff" stroke="transparent" points="3957,-1786 3957,-1807 4217,-1807 4217,-1786 3957,-1786"/>
<polygon fill="none" stroke="#bdbdbd" points="3957,-1786 3957,-1807 4217,-1807 4217,-1786 3957,-1786"/>
<text text-anchor="start" x="4049" y="-1795" font-family="Arial" font-weight="bold" font-size="10.00">INTERMEDIATE</text>
<polygon fill="none" stroke="#bdbdbd" points="3957,-1616 3957,-1786 4217,-1786 4217,-1616 3957,-1616"/>
<image xlink:href="results/v2/route_trees_3764f7_top10_current/molecules/c22deec9ea926523.png" width="250px" height="160px" preserveAspectRatio="xMinYMin meet" x="3962" y="-1781"/>
<polygon fill="none" stroke="#bdbdbd" points="3957,-1597 3957,-1616 4217,-1616 4217,-1597 3957,-1597"/>
<text text-anchor="start" x="3999" y="-1604.6" font-family="Arial" font-size="8.00">CC(C)c1nc(N(C)S(C)(=O)=O)nc(&#45;c2ccc(F)cc2)...</text>
</g>
<!-- n12 -->
<g id="node13" class="node">
<title>n12</title>
<polygon fill="#ffffff" stroke="transparent" points="4439,-2612 4439,-2633 4699,-2633 4699,-2612 4439,-2612"/>
<polygon fill="none" stroke="#bdbdbd" points="4439,-2612 4439,-2633 4699,-2633 4699,-2612 4439,-2612"/>
<text text-anchor="start" x="4531" y="-2621" font-family="Arial" font-weight="bold" font-size="10.00">INTERMEDIATE</text>
<polygon fill="none" stroke="#bdbdbd" points="4439,-2442 4439,-2612 4699,-2612 4699,-2442 4439,-2442"/>
<image xlink:href="results/v2/route_trees_3764f7_top10_current/molecules/1c1c7505a32127bf.png" width="250px" height="160px" preserveAspectRatio="xMinYMin meet" x="4444" y="-2607"/>
<polygon fill="none" stroke="#bdbdbd" points="4439,-2423 4439,-2442 4699,-2442 4699,-2423 4439,-2423"/>
<text text-anchor="start" x="4479.5" y="-2430.6" font-family="Arial" font-size="8.00">CCOC(=O)/C=C/c1c(&#45;c2ccc(F)cc2)nc(N(C)S(C)...</text>
</g>
<!-- n13 -->
<g id="node14" class="node">
<title>n13</title>
<polygon fill="#edf6e7" stroke="transparent" points="8126,-2994 8126,-3015 8386,-3015 8386,-2994 8126,-2994"/>
<polygon fill="none" stroke="#5f8f3d" points="8126,-2994 8126,-3015 8386,-3015 8386,-2994 8126,-2994"/>
<text text-anchor="start" x="8229.5" y="-3003" font-family="Arial" font-weight="bold" font-size="10.00">TERMINAL</text>
<polygon fill="none" stroke="#5f8f3d" points="8126,-2824 8126,-2994 8386,-2994 8386,-2824 8126,-2824"/>
<image xlink:href="results/v2/route_trees_3764f7_top10_current/molecules/e214417a3034d458.png" width="250px" height="160px" preserveAspectRatio="xMinYMin meet" x="8131" y="-2989"/>
<polygon fill="none" stroke="#5f8f3d" points="8126,-2805 8126,-2824 8386,-2824 8386,-2805 8126,-2805"/>
<text text-anchor="start" x="8222.5" y="-2812.6" font-family="Arial" font-size="8.00">OB(O)c1ccc(F)cc1</text>
</g>
<!-- n14 -->
<g id="node15" class="node">
<title>n14</title>
<polygon fill="#ffffff" stroke="transparent" points="4930,-2612 4930,-2633 5190,-2633 5190,-2612 4930,-2612"/>
<polygon fill="none" stroke="#bdbdbd" points="4930,-2612 4930,-2633 5190,-2633 5190,-2612 4930,-2612"/>
<text text-anchor="start" x="5022" y="-2621" font-family="Arial" font-weight="bold" font-size="10.00">INTERMEDIATE</text>
<polygon fill="none" stroke="#bdbdbd" points="4930,-2442 4930,-2612 5190,-2612 5190,-2442 4930,-2442"/>
<image xlink:href="results/v2/route_trees_3764f7_top10_current/molecules/af0fa5ab6b68df64.png" width="250px" height="160px" preserveAspectRatio="xMinYMin meet" x="4935" y="-2607"/>
<polygon fill="none" stroke="#bdbdbd" points="4930,-2423 4930,-2442 5190,-2442 5190,-2423 4930,-2423"/>
<text text-anchor="start" x="4968" y="-2430.6" font-family="Arial" font-size="8.00">CCOC(=O)/C=C/c1c(Cl)nc(N(C)S(C)(=O)=O)nc1...</text>
</g>
<!-- n15 -->
<g id="node16" class="node">
<title>n15</title>
<polygon fill="#edf6e7" stroke="transparent" points="8126,-2739 8126,-2760 8386,-2760 8386,-2739 8126,-2739"/>
<polygon fill="none" stroke="#5f8f3d" points="8126,-2739 8126,-2760 8386,-2760 8386,-2739 8126,-2739"/>
<text text-anchor="start" x="8229.5" y="-2748" font-family="Arial" font-weight="bold" font-size="10.00">TERMINAL</text>
<polygon fill="none" stroke="#5f8f3d" points="8126,-2569 8126,-2739 8386,-2739 8386,-2569 8126,-2569"/>
<image xlink:href="results/v2/route_trees_3764f7_top10_current/molecules/02fd5b9f346a5db9.png" width="250px" height="160px" preserveAspectRatio="xMinYMin meet" x="8131" y="-2734"/>
<polygon fill="none" stroke="#5f8f3d" points="8126,-2550 8126,-2569 8386,-2569 8386,-2550 8126,-2550"/>
<text text-anchor="start" x="8174.5" y="-2557.6" font-family="Arial" font-size="8.00">CCOC(=O)C=P(c1ccccc1)(c1ccccc1)c1ccccc1</text>
</g>
<!-- n16 -->
<g id="node17" class="node">
<title>n16</title>
<polygon fill="#ffffff" stroke="transparent" points="5409,-2484 5409,-2505 5669,-2505 5669,-2484 5409,-2484"/>
<polygon fill="none" stroke="#bdbdbd" points="5409,-2484 5409,-2505 5669,-2505 5669,-2484 5409,-2484"/>
<text text-anchor="start" x="5501" y="-2493" font-family="Arial" font-weight="bold" font-size="10.00">INTERMEDIATE</text>
<polygon fill="none" stroke="#bdbdbd" points="5409,-2314 5409,-2484 5669,-2484 5669,-2314 5409,-2314"/>
<image xlink:href="results/v2/route_trees_3764f7_top10_current/molecules/4fff0bd9b8e6031a.png" width="250px" height="160px" preserveAspectRatio="xMinYMin meet" x="5414" y="-2479"/>
<polygon fill="none" stroke="#bdbdbd" points="5409,-2295 5409,-2314 5669,-2314 5669,-2295 5409,-2295"/>
<text text-anchor="start" x="5461" y="-2302.6" font-family="Arial" font-size="8.00">CC(C)c1nc(N(C)S(C)(=O)=O)nc(Cl)c1C=O</text>
</g>
<!-- n17 -->
<g id="node18" class="node">
<title>n17</title>
<polygon fill="#edf6e7" stroke="transparent" points="8126,-2484 8126,-2505 8386,-2505 8386,-2484 8126,-2484"/>
<polygon fill="none" stroke="#5f8f3d" points="8126,-2484 8126,-2505 8386,-2505 8386,-2484 8126,-2484"/>
<text text-anchor="start" x="8229.5" y="-2493" font-family="Arial" font-weight="bold" font-size="10.00">TERMINAL</text>
<polygon fill="none" stroke="#5f8f3d" points="8126,-2314 8126,-2484 8386,-2484 8386,-2314 8126,-2314"/>
<image xlink:href="results/v2/route_trees_3764f7_top10_current/molecules/0d9d73b39100b629.png" width="250px" height="160px" preserveAspectRatio="xMinYMin meet" x="8131" y="-2479"/>
<polygon fill="none" stroke="#5f8f3d" points="8126,-2295 8126,-2314 8386,-2314 8386,-2295 8126,-2295"/>
<text text-anchor="start" x="8235.5" y="-2302.6" font-family="Arial" font-size="8.00">CN(C)C=O</text>
</g>
<!-- n18 -->
<g id="node19" class="node">
<title>n18</title>
<polygon fill="#ffffff" stroke="transparent" points="5894,-2229 5894,-2250 6154,-2250 6154,-2229 5894,-2229"/>
<polygon fill="none" stroke="#bdbdbd" points="5894,-2229 5894,-2250 6154,-2250 6154,-2229 5894,-2229"/>
<text text-anchor="start" x="5986" y="-2238" font-family="Arial" font-weight="bold" font-size="10.00">INTERMEDIATE</text>
<polygon fill="none" stroke="#bdbdbd" points="5894,-2059 5894,-2229 6154,-2229 6154,-2059 5894,-2059"/>
<image xlink:href="results/v2/route_trees_3764f7_top10_current/molecules/d058e4ac1731a1d1.png" width="250px" height="160px" preserveAspectRatio="xMinYMin meet" x="5899" y="-2224"/>
<polygon fill="none" stroke="#bdbdbd" points="5894,-2040 5894,-2059 6154,-2059 6154,-2040 5894,-2040"/>
<text text-anchor="start" x="5941" y="-2047.6" font-family="Arial" font-size="8.00">CC(=O)c1c(C)nc(N(C)S(C)(=O)=O)nc1C(C)C</text>
</g>
<!-- n19 -->
<g id="node20" class="node">
<title>n19</title>
<polygon fill="#edf6e7" stroke="transparent" points="8126,-2229 8126,-2250 8386,-2250 8386,-2229 8126,-2229"/>
<polygon fill="none" stroke="#5f8f3d" points="8126,-2229 8126,-2250 8386,-2250 8386,-2229 8126,-2229"/>
<text text-anchor="start" x="8229.5" y="-2238" font-family="Arial" font-weight="bold" font-size="10.00">TERMINAL</text>
<polygon fill="none" stroke="#5f8f3d" points="8126,-2059 8126,-2229 8386,-2229 8386,-2059 8126,-2059"/>
<image xlink:href="results/v2/route_trees_3764f7_top10_current/molecules/0d546e1fb7a6805d.png" width="250px" height="160px" preserveAspectRatio="xMinYMin meet" x="8131" y="-2224"/>
<polygon fill="none" stroke="#5f8f3d" points="8126,-2040 8126,-2059 8386,-2059 8386,-2040 8126,-2040"/>
<text text-anchor="start" x="8231" y="-2047.6" font-family="Arial" font-size="8.00">O=C([O&#45;])[O&#45;]</text>
</g>
<!-- n20 -->
<g id="node21" class="node">
<title>n20</title>
<polygon fill="#ffffff" stroke="transparent" points="6376,-1901 6376,-1922 6636,-1922 6636,-1901 6376,-1901"/>
<polygon fill="none" stroke="#bdbdbd" points="6376,-1901 6376,-1922 6636,-1922 6636,-1901 6376,-1901"/>
<text text-anchor="start" x="6468" y="-1910" font-family="Arial" font-weight="bold" font-size="10.00">INTERMEDIATE</text>
<polygon fill="none" stroke="#bdbdbd" points="6376,-1731 6376,-1901 6636,-1901 6636,-1731 6376,-1731"/>
<image xlink:href="results/v2/route_trees_3764f7_top10_current/molecules/cb9e36001db0774f.png" width="250px" height="160px" preserveAspectRatio="xMinYMin meet" x="6381" y="-1896"/>
<polygon fill="none" stroke="#bdbdbd" points="6376,-1712 6376,-1731 6636,-1731 6636,-1712 6376,-1712"/>
<text text-anchor="start" x="6429" y="-1719.6" font-family="Arial" font-size="8.00">CC(=O)c1c(C)nc(NS(C)(=O)=O)nc1C(C)C</text>
</g>
<!-- n21 -->
<g id="node22" class="node">
<title>n21</title>
<polygon fill="#ffffff" stroke="transparent" points="6797,-1901 6797,-1922 7057,-1922 7057,-1901 6797,-1901"/>
<polygon fill="none" stroke="#bdbdbd" points="6797,-1901 6797,-1922 7057,-1922 7057,-1901 6797,-1901"/>
<text text-anchor="start" x="6889" y="-1910" font-family="Arial" font-weight="bold" font-size="10.00">INTERMEDIATE</text>
<polygon fill="none" stroke="#bdbdbd" points="6797,-1731 6797,-1901 7057,-1901 7057,-1731 6797,-1731"/>
<image xlink:href="results/v2/route_trees_3764f7_top10_current/molecules/434b8bc20bb18d9a.png" width="250px" height="160px" preserveAspectRatio="xMinYMin meet" x="6802" y="-1896"/>
<polygon fill="none" stroke="#bdbdbd" points="6797,-1712 6797,-1731 7057,-1731 7057,-1712 6797,-1712"/>
<text text-anchor="start" x="6872" y="-1719.6" font-family="Arial" font-size="8.00">CC(=O)c1c(C)nc(N)nc1C(C)C</text>
</g>
<!-- n22 -->
<g id="node23" class="node">
<title>n22</title>
<polygon fill="#edf6e7" stroke="transparent" points="8126,-954 8126,-975 8386,-975 8386,-954 8126,-954"/>
<polygon fill="none" stroke="#5f8f3d" points="8126,-954 8126,-975 8386,-975 8386,-954 8126,-954"/>
<text text-anchor="start" x="8229.5" y="-963" font-family="Arial" font-weight="bold" font-size="10.00">TERMINAL</text>
<polygon fill="none" stroke="#5f8f3d" points="8126,-784 8126,-954 8386,-954 8386,-784 8126,-784"/>
<image xlink:href="results/v2/route_trees_3764f7_top10_current/molecules/e382f87867ea8d4c.png" width="250px" height="160px" preserveAspectRatio="xMinYMin meet" x="8131" y="-949"/>
<polygon fill="none" stroke="#5f8f3d" points="8126,-765 8126,-784 8386,-784 8386,-765 8126,-765"/>
<text text-anchor="start" x="8230" y="-772.6" font-family="Arial" font-size="8.00">CS(=O)(=O)Cl</text>
</g>
<!-- n23 -->
<g id="node24" class="node">
<title>n23</title>
<polygon fill="#edf6e7" stroke="transparent" points="8126,-1974 8126,-1995 8386,-1995 8386,-1974 8126,-1974"/>
<polygon fill="none" stroke="#5f8f3d" points="8126,-1974 8126,-1995 8386,-1995 8386,-1974 8126,-1974"/>
<text text-anchor="start" x="8229.5" y="-1983" font-family="Arial" font-weight="bold" font-size="10.00">TERMINAL</text>
<polygon fill="none" stroke="#5f8f3d" points="8126,-1804 8126,-1974 8386,-1974 8386,-1804 8126,-1804"/>
<image xlink:href="results/v2/route_trees_3764f7_top10_current/molecules/86fdcb62ab6c6044.png" width="250px" height="160px" preserveAspectRatio="xMinYMin meet" x="8131" y="-1969"/>
<polygon fill="none" stroke="#5f8f3d" points="8126,-1785 8126,-1804 8386,-1804 8386,-1785 8126,-1785"/>
<text text-anchor="start" x="8237.5" y="-1792.6" font-family="Arial" font-size="8.00">CC(=O)Cl</text>
</g>
<!-- n24 -->
<g id="node25" class="node">
<title>n24</title>
<polygon fill="#ffffff" stroke="transparent" points="7279,-1719 7279,-1740 7539,-1740 7539,-1719 7279,-1719"/>
<polygon fill="none" stroke="#bdbdbd" points="7279,-1719 7279,-1740 7539,-1740 7539,-1719 7279,-1719"/>
<text text-anchor="start" x="7371" y="-1728" font-family="Arial" font-weight="bold" font-size="10.00">INTERMEDIATE</text>
<polygon fill="none" stroke="#bdbdbd" points="7279,-1549 7279,-1719 7539,-1719 7539,-1549 7279,-1549"/>
<image xlink:href="results/v2/route_trees_3764f7_top10_current/molecules/3ab16e862b70644f.png" width="250px" height="160px" preserveAspectRatio="xMinYMin meet" x="7284" y="-1714"/>
<polygon fill="none" stroke="#bdbdbd" points="7279,-1530 7279,-1549 7539,-1549 7539,-1530 7279,-1530"/>
<text text-anchor="start" x="7368" y="-1537.6" font-family="Arial" font-size="8.00">Cc1cc(C(C)C)nc(N)n1</text>
</g>
<!-- n25 -->
<g id="node26" class="node">
<title>n25</title>
<polygon fill="#edf6e7" stroke="transparent" points="8126,-1719 8126,-1740 8386,-1740 8386,-1719 8126,-1719"/>
<polygon fill="none" stroke="#5f8f3d" points="8126,-1719 8126,-1740 8386,-1740 8386,-1719 8126,-1719"/>
<text text-anchor="start" x="8229.5" y="-1728" font-family="Arial" font-weight="bold" font-size="10.00">TERMINAL</text>
<polygon fill="none" stroke="#5f8f3d" points="8126,-1549 8126,-1719 8386,-1719 8386,-1549 8126,-1549"/>
<image xlink:href="results/v2/route_trees_3764f7_top10_current/molecules/719befc7e9f897e9.png" width="250px" height="160px" preserveAspectRatio="xMinYMin meet" x="8131" y="-1714"/>
<polygon fill="none" stroke="#5f8f3d" points="8126,-1530 8126,-1549 8386,-1549 8386,-1530 8126,-1530"/>
<text text-anchor="start" x="8238.5" y="-1537.6" font-family="Arial" font-size="8.00">N=C(N)N</text>
</g>
<!-- n26 -->
<g id="node27" class="node">
<title>n26</title>
<polygon fill="#ffffff" stroke="transparent" points="7705,-1464 7705,-1485 7965,-1485 7965,-1464 7705,-1464"/>
<polygon fill="none" stroke="#bdbdbd" points="7705,-1464 7705,-1485 7965,-1485 7965,-1464 7705,-1464"/>
<text text-anchor="start" x="7797" y="-1473" font-family="Arial" font-weight="bold" font-size="10.00">INTERMEDIATE</text>
<polygon fill="none" stroke="#bdbdbd" points="7705,-1294 7705,-1464 7965,-1464 7965,-1294 7705,-1294"/>
<image xlink:href="results/v2/route_trees_3764f7_top10_current/molecules/f77d2d5f20015346.png" width="250px" height="160px" preserveAspectRatio="xMinYMin meet" x="7710" y="-1459"/>
<polygon fill="none" stroke="#bdbdbd" points="7705,-1275 7705,-1294 7965,-1294 7965,-1275 7705,-1275"/>
<text text-anchor="start" x="7794" y="-1282.6" font-family="Arial" font-size="8.00">CC(=O)CC(=O)C(C)C</text>
</g>
<!-- n27 -->
<g id="node28" class="node">
<title>n27</title>
<polygon fill="#edf6e7" stroke="transparent" points="8126,-1464 8126,-1485 8386,-1485 8386,-1464 8126,-1464"/>
<polygon fill="none" stroke="#5f8f3d" points="8126,-1464 8126,-1485 8386,-1485 8386,-1464 8126,-1464"/>
<text text-anchor="start" x="8229.5" y="-1473" font-family="Arial" font-weight="bold" font-size="10.00">TERMINAL</text>
<polygon fill="none" stroke="#5f8f3d" points="8126,-1294 8126,-1464 8386,-1464 8386,-1294 8126,-1294"/>
<image xlink:href="results/v2/route_trees_3764f7_top10_current/molecules/9c82a341e1dcedda.png" width="250px" height="160px" preserveAspectRatio="xMinYMin meet" x="8131" y="-1459"/>
<polygon fill="none" stroke="#5f8f3d" points="8126,-1275 8126,-1294 8386,-1294 8386,-1275 8126,-1275"/>
<text text-anchor="start" x="8232.5" y="-1282.6" font-family="Arial" font-size="8.00">CCOC(C)=O</text>
</g>
<!-- n28 -->
<g id="node29" class="node">
<title>n28</title>
<polygon fill="#edf6e7" stroke="transparent" points="8126,-1209 8126,-1230 8386,-1230 8386,-1209 8126,-1209"/>
<polygon fill="none" stroke="#5f8f3d" points="8126,-1209 8126,-1230 8386,-1230 8386,-1209 8126,-1209"/>
<text text-anchor="start" x="8229.5" y="-1218" font-family="Arial" font-weight="bold" font-size="10.00">TERMINAL</text>
<polygon fill="none" stroke="#5f8f3d" points="8126,-1039 8126,-1209 8386,-1209 8386,-1039 8126,-1039"/>
<image xlink:href="results/v2/route_trees_3764f7_top10_current/molecules/e8df49dad1f0d6e4.png" width="250px" height="160px" preserveAspectRatio="xMinYMin meet" x="8131" y="-1204"/>
<polygon fill="none" stroke="#5f8f3d" points="8126,-1020 8126,-1039 8386,-1039 8386,-1020 8126,-1020"/>
<text text-anchor="start" x="8229.5" y="-1027.6" font-family="Arial" font-size="8.00">CC(=O)C(C)C</text>
</g>
<!-- n29 -->
<g id="node30" class="node">
<title>n29</title>
<polygon fill="#edf6e7" stroke="transparent" points="8126,-444 8126,-465 8386,-465 8386,-444 8126,-444"/>
<polygon fill="none" stroke="#5f8f3d" points="8126,-444 8126,-465 8386,-465 8386,-444 8126,-444"/>
<text text-anchor="start" x="8229.5" y="-453" font-family="Arial" font-weight="bold" font-size="10.00">TERMINAL</text>
<polygon fill="none" stroke="#5f8f3d" points="8126,-274 8126,-444 8386,-444 8386,-274 8126,-274"/>
<image xlink:href="results/v2/route_trees_3764f7_top10_current/molecules/1514bef6b5d440fc.png" width="250px" height="160px" preserveAspectRatio="xMinYMin meet" x="8131" y="-439"/>
<polygon fill="none" stroke="#5f8f3d" points="8126,-255 8126,-274 8386,-274 8386,-255 8126,-255"/>
<text text-anchor="start" x="8218" y="-262.6" font-family="Arial" font-size="8.00">COC(=O)CC(=O)OC</text>
</g>
</g>
</svg>
