<?xml version="1.0" encoding="UTF-8" standalone="no"?>
<!DOCTYPE svg PUBLIC "-//W3C//DTD SVG 1.1//EN"
 "http://www.w3.org/Graphics/SVG/1.1/DTD/svg11.dtd">
<!-- Generated by graphviz version 2.43.0 (0)
 -->
<!-- Title: RouteTree Pages: 1 -->
<svg width="7837pt" height="2323pt"
 viewBox="0.00 0.00 7837.40 2323.40" xmlns="http://www.w3.org/2000/svg" xmlns:xlink="http://www.w3.org/1999/xlink">
<g id="graph0" class="graph" transform="scale(1 1) rotate(0) translate(25.2 2298.2)">
<title>RouteTree</title>
<polygon fill="white" stroke="transparent" points="-25.2,25.2 -25.2,-2298.2 7812.2,-2298.2 7812.2,25.2 -25.2,25.2"/>
<text text-anchor="start" x="3450.5" y="-2257.8" font-family="Times,serif" font-size="14.00">Route 01 | 17 steps | score 0.0112 | triage_fragment | acylating_piece_present, aryl_coupling_hint, carrier_reagent_terminal</text>
<!-- n0&#45;&gt;n1 -->
<g id="edge1" class="edge">
<title>n0&#45;&gt;n1</title>
<path fill="none" stroke="#333333" stroke-width="1.2" d="M260.26,-177.89C326.7,-196.86 407.65,-219.96 475.03,-239.19"/>
<polygon fill="#333333" stroke="#333333" stroke-width="1.2" points="474.52,-241.59 481.92,-241.16 475.86,-236.88 474.52,-241.59"/>
<text text-anchor="middle" x="371" y="-231.8" font-family="Arial" font-size="9.00">S1.1 | enzymatic | EC 1.1.1.100 | 33 C</text>
</g>
<!-- n0&#45;&gt;n2 -->
<g id="edge2" class="edge">
<title>n0&#45;&gt;n2</title>
<path fill="none" stroke="#333333" stroke-width="1.2" d="M260.17,-126.05C356.68,-116.15 491.92,-105 611,-105 611,-105 611,-105 7173,-105 7289.98,-105 7422.91,-105 7519.65,-105"/>
<polygon fill="#333333" stroke="#333333" stroke-width="1.2" points="7519.85,-107.45 7526.85,-105 7519.85,-102.55 7519.85,-107.45"/>
<text text-anchor="middle" x="4087" y="-107.8" font-family="Arial" font-size="9.00">S1.2 | enzymatic | EC 1.1.1.100 | 33 C</text>
</g>
<!-- n1&#45;&gt;n3 -->
<g id="edge3" class="edge">
<title>n1&#45;&gt;n3</title>
<path fill="none" stroke="#333333" stroke-width="1.2" d="M742.06,-288.8C811.14,-294.58 896.21,-301.7 966.4,-307.57"/>
<polygon fill="#333333" stroke="#333333" stroke-width="1.2" points="966.4,-310.03 973.58,-308.17 966.81,-305.15 966.4,-310.03"/>
<text text-anchor="middle" x="858" y="-306.8" font-family="Arial" font-size="9.00">S2.1 | enzymatic | EC 1.14.14.155 | 77 C</text>
</g>
<!-- n3&#45;&gt;n4 -->
<g id="edge4" class="edge">
<title>n3&#45;&gt;n4</title>
<path fill="none" stroke="#333333" stroke-width="1.2" d="M1234.29,-330.23C1298.41,-335.8 1375.85,-342.53 1440.88,-348.18"/>
<polygon fill="#333333" stroke="#333333" stroke-width="1.2" points="1440.75,-350.62 1447.93,-348.79 1441.17,-345.74 1440.75,-350.62"/>
<text text-anchor="middle" x="1341" y="-347.8" font-family="Arial" font-size="9.00">S3.1 | enzymatic | EC 5.3.3.1 | &#45;60 C</text>
</g>
<!-- n4&#45;&gt;n5 -->
<g id="edge5" class="edge">
<title>n4&#45;&gt;n5</title>
<path fill="none" stroke="#333333" stroke-width="1.2" d="M1708.26,-406.59C1774.7,-430.54 1855.65,-459.71 1923.03,-483.99"/>
<polygon fill="#333333" stroke="#333333" stroke-width="1.2" points="1922.51,-486.41 1929.92,-486.48 1924.17,-481.8 1922.51,-486.41"/>
<text text-anchor="middle" x="1819" y="-474.8" font-family="Arial" font-size="9.00">S4.1 | enzymatic | EC 1.13.11.5 | 21 C</text>
</g>
<!-- n4&#45;&gt;n6 -->
<g id="edge6" class="edge">
<title>n4&#45;&gt;n6</title>
<path fill="none" stroke="#333333" stroke-width="1.2" d="M1708.11,-360C1848.86,-360 2073.11,-360 2216.64,-360"/>
<polygon fill="#333333" stroke="#333333" stroke-width="1.2" points="2216.84,-362.45 2223.84,-360 2216.84,-357.55 2216.84,-362.45"/>
<text text-anchor="middle" x="1819" y="-362.8" font-family="Arial" font-size="9.00">S4.2 | enzymatic | EC 1.13.11.5 | 21 C</text>
</g>
<!-- n5&#45;&gt;n7 -->
<g id="edge7" class="edge">
<title>n5&#45;&gt;n7</title>
<path fill="none" stroke="#333333" stroke-width="1.2" d="M2190.33,-542.05C2285.27,-548.69 2413.98,-557.7 2510.56,-564.45"/>
<polygon fill="#333333" stroke="#333333" stroke-width="1.2" points="2510.6,-566.91 2517.75,-564.96 2510.94,-562.02 2510.6,-566.91"/>
<text text-anchor="middle" x="2354" y="-563.8" font-family="Arial" font-size="9.00">S5.1 | enzymatic | EC 5.3.3.&#45; | 46 C</text>
</g>
<!-- n6&#45;&gt;n25 -->
<g id="edge25" class="edge">
<title>n6&#45;&gt;n25</title>
<path fill="none" stroke="#333333" stroke-width="1.2" d="M2484,-360C2591.74,-360 2749.38,-360 2887,-360 2887,-360 2887,-360 7173,-360 7289.98,-360 7422.91,-360 7519.65,-360"/>
<polygon fill="#333333" stroke="#333333" stroke-width="1.2" points="7519.85,-362.45 7526.85,-360 7519.85,-357.55 7519.85,-362.45"/>
<text text-anchor="middle" x="4997" y="-362.8" font-family="Arial" font-size="9.00">S17.1 | enzymatic | EC 3.1.1.&#45; | 130 C</text>
</g>
<!-- n7&#45;&gt;n8 -->
<g id="edge8" class="edge">
<title>n7&#45;&gt;n8</title>
<path fill="none" stroke="#333333" stroke-width="1.2" d="M2778.04,-585.07C2843.8,-590.71 2923.77,-597.57 2990.55,-603.3"/>
<polygon fill="#333333" stroke="#333333" stroke-width="1.2" points="2990.61,-605.76 2997.79,-603.92 2991.03,-600.88 2990.61,-605.76"/>
<text text-anchor="middle" x="2888" y="-602.8" font-family="Arial" font-size="9.00">S6.1 | ChemEnzyRetroPlanner | 35 C</text>
</g>
<!-- n8&#45;&gt;n9 -->
<g id="edge9" class="edge">
<title>n8&#45;&gt;n9</title>
<path fill="none" stroke="#333333" stroke-width="1.2" d="M3258.08,-661.82C3323.7,-685.62 3403.43,-714.53 3470,-738.68"/>
<polygon fill="#333333" stroke="#333333" stroke-width="1.2" points="3469.4,-741.06 3476.81,-741.15 3471.07,-736.46 3469.4,-741.06"/>
<text text-anchor="middle" x="3367.5" y="-729.8" font-family="Arial" font-size="9.00">S7.1 | enzymatic | EC 4.1.2.47 | &#45;70 C</text>
</g>
<!-- n8&#45;&gt;n10 -->
<g id="edge10" class="edge">
<title>n8&#45;&gt;n10</title>
<path fill="none" stroke="#333333" stroke-width="1.2" d="M3258.06,-615C3354.03,-615 3488.2,-615 3606,-615 3606,-615 3606,-615 7173,-615 7289.98,-615 7422.91,-615 7519.65,-615"/>
<polygon fill="#333333" stroke="#333333" stroke-width="1.2" points="7519.85,-617.45 7526.85,-615 7519.85,-612.55 7519.85,-617.45"/>
<text text-anchor="middle" x="5418" y="-617.8" font-family="Arial" font-size="9.00">S7.2 | enzymatic | EC 4.1.2.47 | &#45;70 C</text>
</g>
<!-- n9&#45;&gt;n11 -->
<g id="edge11" class="edge">
<title>n9&#45;&gt;n11</title>
<path fill="none" stroke="#333333" stroke-width="1.2" d="M3702.44,-893.11C3784.55,-984.49 3903.13,-1116.47 3986.65,-1209.43"/>
<polygon fill="#333333" stroke="#333333" stroke-width="1.2" points="3984.85,-1211.09 3991.35,-1214.66 3988.49,-1207.81 3984.85,-1211.09"/>
<text text-anchor="middle" x="3847" y="-1134.8" font-family="Arial" font-size="9.00">S8.1 | ChemEnzyRetroPlanner | 22 C</text>
</g>
<!-- n11&#45;&gt;n12 -->
<g id="edge12" class="edge">
<title>n11&#45;&gt;n12</title>
<path fill="none" stroke="#333333" stroke-width="1.2" d="M4184.45,-1425.01C4250.12,-1496.5 4336.87,-1590.95 4403.56,-1663.56"/>
<polygon fill="#333333" stroke="#333333" stroke-width="1.2" points="4401.79,-1665.25 4408.33,-1668.75 4405.4,-1661.94 4401.79,-1665.25"/>
<text text-anchor="middle" x="4296.5" y="-1589.8" font-family="Arial" font-size="9.00">S9.1 | template | &#45;58 C</text>
</g>
<!-- n12&#45;&gt;n13 -->
<g id="edge13" class="edge">
<title>n12&#45;&gt;n13</title>
<path fill="none" stroke="#333333" stroke-width="1.2" d="M4580.23,-1879.32C4666.01,-1989.01 4819.1,-2145 4996,-2145 4996,-2145 4996,-2145 7173,-2145 7289.98,-2145 7422.91,-2145 7519.65,-2145"/>
<polygon fill="#333333" stroke="#333333" stroke-width="1.2" points="7519.85,-2147.45 7526.85,-2145 7519.85,-2142.55 7519.85,-2147.45"/>
<text text-anchor="middle" x="6084.5" y="-2147.8" font-family="Arial" font-size="9.00">S10.1 | ChemEnzyRetroPlanner | 105 C</text>
</g>
<!-- n12&#45;&gt;n14 -->
<g id="edge14" class="edge">
<title>n12&#45;&gt;n14</title>
<path fill="none" stroke="#333333" stroke-width="1.2" d="M4636.12,-1774C4704.92,-1774 4789.54,-1774 4859.43,-1774"/>
<polygon fill="#333333" stroke="#333333" stroke-width="1.2" points="4859.58,-1776.45 4866.58,-1774 4859.58,-1771.55 4859.58,-1776.45"/>
<text text-anchor="middle" x="4751.5" y="-1776.8" font-family="Arial" font-size="9.00">S10.2 | ChemEnzyRetroPlanner | 105 C</text>
</g>
<!-- n14&#45;&gt;n15 -->
<g id="edge15" class="edge">
<title>n14&#45;&gt;n15</title>
<path fill="none" stroke="#333333" stroke-width="1.2" d="M5127.09,-1829.11C5208.67,-1859.04 5317.18,-1890 5417,-1890 5417,-1890 5417,-1890 7173,-1890 7289.98,-1890 7422.91,-1890 7519.65,-1890"/>
<polygon fill="#333333" stroke="#333333" stroke-width="1.2" points="7519.85,-1892.45 7526.85,-1890 7519.85,-1887.55 7519.85,-1892.45"/>
<text text-anchor="middle" x="6330" y="-1892.8" font-family="Arial" font-size="9.00">S11.1 | template | 57 C</text>
</g>
<!-- n14&#45;&gt;n16 -->
<g id="edge16" class="edge">
<title>n14&#45;&gt;n16</title>
<path fill="none" stroke="#333333" stroke-width="1.2" d="M5127.13,-1737.94C5175.93,-1724.31 5231.59,-1708.77 5281,-1694.98"/>
<polygon fill="#333333" stroke="#333333" stroke-width="1.2" points="5281.85,-1697.28 5287.93,-1693.04 5280.53,-1692.56 5281.85,-1697.28"/>
<text text-anchor="middle" x="5207.5" y="-1727.8" font-family="Arial" font-size="9.00">S11.2 | template | 57 C</text>
</g>
<!-- n16&#45;&gt;n17 -->
<g id="edge17" class="edge">
<title>n16&#45;&gt;n17</title>
<path fill="none" stroke="#333333" stroke-width="1.2" d="M5548.13,-1613.24C5596.93,-1596.7 5652.59,-1577.84 5702,-1561.09"/>
<polygon fill="#333333" stroke="#333333" stroke-width="1.2" points="5703.09,-1563.31 5708.93,-1558.74 5701.52,-1558.67 5703.09,-1563.31"/>
<text text-anchor="middle" x="5628.5" y="-1600.8" font-family="Arial" font-size="9.00">S12.1 | template | 18 C</text>
</g>
<!-- n17&#45;&gt;n18 -->
<g id="edge18" class="edge">
<title>n17&#45;&gt;n18</title>
<path fill="none" stroke="#333333" stroke-width="1.2" d="M5969.12,-1509.19C6037.92,-1506.1 6122.54,-1502.29 6192.43,-1499.14"/>
<polygon fill="#333333" stroke="#333333" stroke-width="1.2" points="6192.7,-1501.58 6199.58,-1498.82 6192.48,-1496.69 6192.7,-1501.58"/>
<text text-anchor="middle" x="6084.5" y="-1509.8" font-family="Arial" font-size="9.00">S13.1 | template | &#45;43 C</text>
</g>
<!-- n18&#45;&gt;n19 -->
<g id="edge19" class="edge">
<title>n18&#45;&gt;n19</title>
<path fill="none" stroke="#333333" stroke-width="1.2" d="M6460.13,-1493C6508.83,-1493 6564.36,-1493 6613.7,-1493"/>
<polygon fill="#333333" stroke="#333333" stroke-width="1.2" points="6613.93,-1495.45 6620.93,-1493 6613.93,-1490.55 6613.93,-1495.45"/>
<text text-anchor="middle" x="6540.5" y="-1495.8" font-family="Arial" font-size="9.00">S14.1 | template | 38 C</text>
</g>
<!-- n18&#45;&gt;n20 -->
<g id="edge20" class="edge">
<title>n18&#45;&gt;n20</title>
<path fill="none" stroke="#333333" stroke-width="1.2" d="M6460.16,-1432.27C6711.52,-1314.08 7264.24,-1054.2 7520.55,-933.69"/>
<polygon fill="#333333" stroke="#333333" stroke-width="1.2" points="7521.63,-935.89 7526.92,-930.69 7519.54,-931.45 7521.63,-935.89"/>
<text text-anchor="middle" x="6961.5" y="-1219.8" font-family="Arial" font-size="9.00">S14.2 | template | 38 C</text>
</g>
<!-- n19&#45;&gt;n21 -->
<g id="edge21" class="edge">
<title>n19&#45;&gt;n21</title>
<path fill="none" stroke="#333333" stroke-width="1.2" d="M6881.04,-1513.27C7050.53,-1539.89 7346.84,-1586.44 7519.81,-1613.61"/>
<polygon fill="#333333" stroke="#333333" stroke-width="1.2" points="7519.64,-1616.06 7526.94,-1614.73 7520.4,-1611.22 7519.64,-1616.06"/>
<text text-anchor="middle" x="7172" y="-1580.8" font-family="Arial" font-size="9.00">S15.1 | template | 12 C</text>
</g>
<!-- n19&#45;&gt;n22 -->
<g id="edge22" class="edge">
<title>n19&#45;&gt;n22</title>
<path fill="none" stroke="#333333" stroke-width="1.2" d="M6881.13,-1458.17C6929.93,-1445.01 6985.59,-1430 7035,-1416.68"/>
<polygon fill="#333333" stroke="#333333" stroke-width="1.2" points="7035.81,-1419 7041.93,-1414.81 7034.54,-1414.27 7035.81,-1419"/>
<text text-anchor="middle" x="6961.5" y="-1448.8" font-family="Arial" font-size="9.00">S15.2 | template | 12 C</text>
</g>
<!-- n22&#45;&gt;n23 -->
<g id="edge23" class="edge">
<title>n22&#45;&gt;n23</title>
<path fill="none" stroke="#333333" stroke-width="1.2" d="M7302.12,-1380C7369.25,-1380 7451.3,-1380 7519.49,-1380"/>
<polygon fill="#333333" stroke="#333333" stroke-width="1.2" points="7519.88,-1382.45 7526.88,-1380 7519.88,-1377.55 7519.88,-1382.45"/>
<text text-anchor="middle" x="7414.5" y="-1382.8" font-family="Arial" font-size="9.00">S16.1 | ChemEnzyRetroPlanner | 39 C</text>
</g>
<!-- n22&#45;&gt;n24 -->
<g id="edge24" class="edge">
<title>n22&#45;&gt;n24</title>
<path fill="none" stroke="#333333" stroke-width="1.2" d="M7302.12,-1311.83C7369.53,-1276.24 7451.97,-1232.72 7520.31,-1196.64"/>
<polygon fill="#333333" stroke="#333333" stroke-width="1.2" points="7521.84,-1198.6 7526.88,-1193.17 7519.55,-1194.27 7521.84,-1198.6"/>
<text text-anchor="middle" x="7414.5" y="-1292.8" font-family="Arial" font-size="9.00">S16.2 | ChemEnzyRetroPlanner | 39 C</text>
</g>
<!-- n0 -->
<g id="node1" class="node">
<title>n0</title>
<polygon fill="#f0f0f0" stroke="transparent" points="0,-225 0,-246 260,-246 260,-225 0,-225"/>
<polygon fill="none" stroke="#111111" points="0,-225 0,-246 260,-246 260,-225 0,-225"/>
<text text-anchor="start" x="109.5" y="-234" font-family="Arial" font-weight="bold" font-size="10.00">TARGET</text>
<polygon fill="none" stroke="#111111" points="0,-55 0,-225 260,-225 260,-55 0,-55"/>
<image xlink:href="results/v2/route_trees_3764f7_top10_current/molecules/0b6996454ae09fe2.png" width="250px" height="160px" preserveAspectRatio="xMinYMin meet" x="5" y="-220"/>
<polygon fill="none" stroke="#111111" points="0,-36 0,-55 260,-55 260,-36 0,-36"/>
<text text-anchor="start" x="28" y="-43.6" font-family="Arial" font-size="8.00">CC(C)C1=NC(=NC(=C1/C=C/[C@H](C[C@H](CC(=O...</text>
</g>
<!-- n1 -->
<g id="node2" class="node">
<title>n1</title>
<polygon fill="#ffffff" stroke="transparent" points="482,-362 482,-383 742,-383 742,-362 482,-362"/>
<polygon fill="none" stroke="#bdbdbd" points="482,-362 482,-383 742,-383 742,-362 482,-362"/>
<text text-anchor="start" x="574" y="-371" font-family="Arial" font-weight="bold" font-size="10.00">INTERMEDIATE</text>
<polygon fill="none" stroke="#bdbdbd" points="482,-192 482,-362 742,-362 742,-192 482,-192"/>
<image xlink:href="results/v2/route_trees_3764f7_top10_current/molecules/6a59dcc7d161d513.png" width="250px" height="160px" preserveAspectRatio="xMinYMin meet" x="487" y="-357"/>
<polygon fill="none" stroke="#bdbdbd" points="482,-173 482,-192 742,-192 742,-173 482,-173"/>
<text text-anchor="start" x="524" y="-180.6" font-family="Arial" font-size="8.00">CC(C)c1nc(N(C)S(C)(=O)=O)nc(&#45;c2ccc(F)cc2)...</text>
</g>
<!-- n2 -->
<g id="node3" class="node">
<title>n2</title>
<polygon fill="#edf6e7" stroke="transparent" points="7527,-189 7527,-210 7787,-210 7787,-189 7527,-189"/>
<polygon fill="none" stroke="#5f8f3d" points="7527,-189 7527,-210 7787,-210 7787,-189 7527,-189"/>
<text text-anchor="start" x="7630.5" y="-198" font-family="Arial" font-weight="bold" font-size="10.00">TERMINAL</text>
<polygon fill="none" stroke="#5f8f3d" points="7527,-19 7527,-189 7787,-189 7787,-19 7527,-19"/>
<image xlink:href="results/v2/route_trees_3764f7_top10_current/molecules/5c7f96ee7e82d868.png" width="250px" height="160px" preserveAspectRatio="xMinYMin meet" x="7532" y="-184"/>
<polygon fill="none" stroke="#5f8f3d" points="7527,0 7527,-19 7787,-19 7787,0 7527,0"/>
<text text-anchor="start" x="7647" y="-7.6" font-family="Arial" font-size="8.00">[OH&#45;]</text>
</g>
<!-- n3 -->
<g id="node4" class="node">
<title>n3</title>
<polygon fill="#ffffff" stroke="transparent" points="974,-403 974,-424 1234,-424 1234,-403 974,-403"/>
<polygon fill="none" stroke="#bdbdbd" points="974,-403 974,-424 1234,-424 1234,-403 974,-403"/>
<text text-anchor="start" x="1066" y="-412" font-family="Arial" font-weight="bold" font-size="10.00">INTERMEDIATE</text>
<polygon fill="none" stroke="#bdbdbd" points="974,-233 974,-403 1234,-403 1234,-233 974,-233"/>
<image xlink:href="results/v2/route_trees_3764f7_top10_current/molecules/e29273f4eef25340.png" width="250px" height="160px" preserveAspectRatio="xMinYMin meet" x="979" y="-398"/>
<polygon fill="none" stroke="#bdbdbd" points="974,-214 974,-233 1234,-233 1234,-214 974,-214"/>
<text text-anchor="start" x="1009.5" y="-221.6" font-family="Arial" font-size="8.00">COC(=O)C[C@H](O)C[C@H](O)/C=C/c1c(&#45;c2ccc(...</text>
</g>
<!-- n4 -->
<g id="node5" class="node">
<title>n4</title>
<polygon fill="#ffffff" stroke="transparent" points="1448,-444 1448,-465 1708,-465 1708,-444 1448,-444"/>
<polygon fill="none" stroke="#bdbdbd" points="1448,-444 1448,-465 1708,-465 1708,-444 1448,-444"/>
<text text-anchor="start" x="1540" y="-453" font-family="Arial" font-weight="bold" font-size="10.00">INTERMEDIATE</text>
<polygon fill="none" stroke="#bdbdbd" points="1448,-274 1448,-444 1708,-444 1708,-274 1448,-274"/>
<image xlink:href="results/v2/route_trees_3764f7_top10_current/molecules/e540e1696959b9d5.png" width="250px" height="160px" preserveAspectRatio="xMinYMin meet" x="1453" y="-439"/>
<polygon fill="none" stroke="#bdbdbd" points="1448,-255 1448,-274 1708,-274 1708,-255 1448,-255"/>
<text text-anchor="start" x="1484.5" y="-262.6" font-family="Arial" font-size="8.00">COC(=O)CC(=O)C[C@H](O)/C=C/c1c(&#45;c2ccc(F)c...</text>
</g>
<!-- n5 -->
<g id="node6" class="node">
<title>n5</title>
<polygon fill="#ffffff" stroke="transparent" points="1930,-617 1930,-638 2190,-638 2190,-617 1930,-617"/>
<polygon fill="none" stroke="#bdbdbd" points="1930,-617 1930,-638 2190,-638 2190,-617 1930,-617"/>
<text text-anchor="start" x="2022" y="-626" font-family="Arial" font-weight="bold" font-size="10.00">INTERMEDIATE</text>
<polygon fill="none" stroke="#bdbdbd" points="1930,-447 1930,-617 2190,-617 2190,-447 1930,-447"/>
<image xlink:href="results/v2/route_trees_3764f7_top10_current/molecules/0205dc34e441121a.png" width="250px" height="160px" preserveAspectRatio="xMinYMin meet" x="1935" y="-612"/>
<polygon fill="none" stroke="#bdbdbd" points="1930,-428 1930,-447 2190,-447 2190,-428 1930,-428"/>
<text text-anchor="start" x="1972" y="-435.6" font-family="Arial" font-size="8.00">CC(C)c1nc(N(C)S(C)(=O)=O)nc(&#45;c2ccc(F)cc2)...</text>
</g>
<!-- n6 -->
<g id="node7" class="node">
<title>n6</title>
<polygon fill="#ffffff" stroke="transparent" points="2224,-444 2224,-465 2484,-465 2484,-444 2224,-444"/>
<polygon fill="none" stroke="#bdbdbd" points="2224,-444 2224,-465 2484,-465 2484,-444 2224,-444"/>
<text text-anchor="start" x="2316" y="-453" font-family="Arial" font-weight="bold" font-size="10.00">INTERMEDIATE</text>
<polygon fill="none" stroke="#bdbdbd" points="2224,-274 2224,-444 2484,-444 2484,-274 2224,-274"/>
<image xlink:href="results/v2/route_trees_3764f7_top10_current/molecules/6597368e79aef144.png" width="250px" height="160px" preserveAspectRatio="xMinYMin meet" x="2229" y="-439"/>
<polygon fill="none" stroke="#bdbdbd" points="2224,-255 2224,-274 2484,-274 2484,-255 2224,-255"/>
<text text-anchor="start" x="2315.5" y="-262.6" font-family="Arial" font-size="8.00">COC(=O)CC(=O)[O&#45;]</text>
</g>
<!-- n7 -->
<g id="node8" class="node">
<title>n7</title>
<polygon fill="#ffffff" stroke="transparent" points="2518,-658 2518,-679 2778,-679 2778,-658 2518,-658"/>
<polygon fill="none" stroke="#bdbdbd" points="2518,-658 2518,-679 2778,-679 2778,-658 2518,-658"/>
<text text-anchor="start" x="2610" y="-667" font-family="Arial" font-weight="bold" font-size="10.00">INTERMEDIATE</text>
<polygon fill="none" stroke="#bdbdbd" points="2518,-488 2518,-658 2778,-658 2778,-488 2518,-488"/>
<image xlink:href="results/v2/route_trees_3764f7_top10_current/molecules/29c4845e89e4713c.png" width="250px" height="160px" preserveAspectRatio="xMinYMin meet" x="2523" y="-653"/>
<polygon fill="none" stroke="#bdbdbd" points="2518,-469 2518,-488 2778,-488 2778,-469 2518,-469"/>
<text text-anchor="start" x="2560" y="-476.6" font-family="Arial" font-size="8.00">CC(C)c1nc(N(C)S(C)(=O)=O)nc(&#45;c2ccc(F)cc2)...</text>
</g>
<!-- n8 -->
<g id="node9" class="node">
<title>n8</title>
<polygon fill="#ffffff" stroke="transparent" points="2998,-699 2998,-720 3258,-720 3258,-699 2998,-699"/>
<polygon fill="none" stroke="#bdbdbd" points="2998,-699 2998,-720 3258,-720 3258,-699 2998,-699"/>
<text text-anchor="start" x="3090" y="-708" font-family="Arial" font-weight="bold" font-size="10.00">INTERMEDIATE</text>
<polygon fill="none" stroke="#bdbdbd" points="2998,-529 2998,-699 3258,-699 3258,-529 2998,-529"/>
<image xlink:href="results/v2/route_trees_3764f7_top10_current/molecules/ca79ac7f201cbb6a.png" width="250px" height="160px" preserveAspectRatio="xMinYMin meet" x="3003" y="-694"/>
<polygon fill="none" stroke="#bdbdbd" points="2998,-510 2998,-529 3258,-529 3258,-510 2998,-510"/>
<text text-anchor="start" x="3040" y="-517.6" font-family="Arial" font-size="8.00">CC(C)c1nc(N(C)S(C)(=O)=O)nc(&#45;c2ccc(F)cc2)...</text>
</g>
<!-- n9 -->
<g id="node10" class="node">
<title>n9</title>
<polygon fill="#ffffff" stroke="transparent" points="3477,-872 3477,-893 3737,-893 3737,-872 3477,-872"/>
<polygon fill="none" stroke="#bdbdbd" points="3477,-872 3477,-893 3737,-893 3737,-872 3477,-872"/>
<text text-anchor="start" x="3569" y="-881" font-family="Arial" font-weight="bold" font-size="10.00">INTERMEDIATE</text>
<polygon fill="none" stroke="#bdbdbd" points="3477,-702 3477,-872 3737,-872 3737,-702 3477,-702"/>
<image xlink:href="results/v2/route_trees_3764f7_top10_current/molecules/b2eed2c3d5baf19d.png" width="250px" height="160px" preserveAspectRatio="xMinYMin meet" x="3482" y="-867"/>
<polygon fill="none" stroke="#bdbdbd" points="3477,-683 3477,-702 3737,-702 3737,-683 3477,-683"/>
<text text-anchor="start" x="3519" y="-690.6" font-family="Arial" font-size="8.00">CC(C)c1nc(N(C)S(C)(=O)=O)nc(&#45;c2ccc(F)cc2)...</text>
</g>
<!-- n10 -->
<g id="node11" class="node">
<title>n10</title>
<polygon fill="#edf6e7" stroke="transparent" points="7527,-699 7527,-720 7787,-720 7787,-699 7527,-699"/>
<polygon fill="none" stroke="#5f8f3d" points="7527,-699 7527,-720 7787,-720 7787,-699 7527,-699"/>
<text text-anchor="start" x="7630.5" y="-708" font-family="Arial" font-weight="bold" font-size="10.00">TERMINAL</text>
<polygon fill="none" stroke="#5f8f3d" points="7527,-529 7527,-699 7787,-699 7787,-529 7527,-529"/>
<image xlink:href="results/v2/route_trees_3764f7_top10_current/molecules/d150779d88df411e.png" width="250px" height="160px" preserveAspectRatio="xMinYMin meet" x="7532" y="-694"/>
<polygon fill="none" stroke="#5f8f3d" points="7527,-510 7527,-529 7787,-529 7787,-510 7527,-510"/>
<text text-anchor="start" x="7621.5" y="-517.6" font-family="Arial" font-size="8.00">CC(=O)OC(C)(C)C</text>
</g>
<!-- n11 -->
<g id="node12" class="node">
<title>n11</title>
<polygon fill="#ffffff" stroke="transparent" points="3957,-1404 3957,-1425 4217,-1425 4217,-1404 3957,-1404"/>
<polygon fill="none" stroke="#bdbdbd" points="3957,-1404 3957,-1425 4217,-1425 4217,-1404 3957,-1404"/>
<text text-anchor="start" x="4049" y="-1413" font-family="Arial" font-weight="bold" font-size="10.00">INTERMEDIATE</text>
<polygon fill="none" stroke="#bdbdbd" points="3957,-1234 3957,-1404 4217,-1404 4217,-1234 3957,-1234"/>
<image xlink:href="results/v2/route_trees_3764f7_top10_current/molecules/c22deec9ea926523.png" width="250px" height="160px" preserveAspectRatio="xMinYMin meet" x="3962" y="-1399"/>
<polygon fill="none" stroke="#bdbdbd" points="3957,-1215 3957,-1234 4217,-1234 4217,-1215 3957,-1215"/>
<text text-anchor="start" x="3999" y="-1222.6" font-family="Arial" font-size="8.00">CC(C)c1nc(N(C)S(C)(=O)=O)nc(&#45;c2ccc(F)cc2)...</text>
</g>
<!-- n12 -->
<g id="node13" class="node">
<title>n12</title>
<polygon fill="#ffffff" stroke="transparent" points="4376,-1858 4376,-1879 4636,-1879 4636,-1858 4376,-1858"/>
<polygon fill="none" stroke="#bdbdbd" points="4376,-1858 4376,-1879 4636,-1879 4636,-1858 4376,-1858"/>
<text text-anchor="start" x="4468" y="-1867" font-family="Arial" font-weight="bold" font-size="10.00">INTERMEDIATE</text>
<polygon fill="none" stroke="#bdbdbd" points="4376,-1688 4376,-1858 4636,-1858 4636,-1688 4376,-1688"/>
<image xlink:href="results/v2/route_trees_3764f7_top10_current/molecules/1c1c7505a32127bf.png" width="250px" height="160px" preserveAspectRatio="xMinYMin meet" x="4381" y="-1853"/>
<polygon fill="none" stroke="#bdbdbd" points="4376,-1669 4376,-1688 4636,-1688 4636,-1669 4376,-1669"/>
<text text-anchor="start" x="4416.5" y="-1676.6" font-family="Arial" font-size="8.00">CCOC(=O)/C=C/c1c(&#45;c2ccc(F)cc2)nc(N(C)S(C)...</text>
</g>
<!-- n13 -->
<g id="node14" class="node">
<title>n13</title>
<polygon fill="#edf6e7" stroke="transparent" points="7527,-2229 7527,-2250 7787,-2250 7787,-2229 7527,-2229"/>
<polygon fill="none" stroke="#5f8f3d" points="7527,-2229 7527,-2250 7787,-2250 7787,-2229 7527,-2229"/>
<text text-anchor="start" x="7630.5" y="-2238" font-family="Arial" font-weight="bold" font-size="10.00">TERMINAL</text>
<polygon fill="none" stroke="#5f8f3d" points="7527,-2059 7527,-2229 7787,-2229 7787,-2059 7527,-2059"/>
<image xlink:href="results/v2/route_trees_3764f7_top10_current/molecules/e214417a3034d458.png" width="250px" height="160px" preserveAspectRatio="xMinYMin meet" x="7532" y="-2224"/>
<polygon fill="none" stroke="#5f8f3d" points="7527,-2040 7527,-2059 7787,-2059 7787,-2040 7527,-2040"/>
<text text-anchor="start" x="7623.5" y="-2047.6" font-family="Arial" font-size="8.00">OB(O)c1ccc(F)cc1</text>
</g>
<!-- n14 -->
<g id="node15" class="node">
<title>n14</title>
<polygon fill="#ffffff" stroke="transparent" points="4867,-1858 4867,-1879 5127,-1879 5127,-1858 4867,-1858"/>
<polygon fill="none" stroke="#bdbdbd" points="4867,-1858 4867,-1879 5127,-1879 5127,-1858 4867,-1858"/>
<text text-anchor="start" x="4959" y="-1867" font-family="Arial" font-weight="bold" font-size="10.00">INTERMEDIATE</text>
<polygon fill="none" stroke="#bdbdbd" points="4867,-1688 4867,-1858 5127,-1858 5127,-1688 4867,-1688"/>
<image xlink:href="results/v2/route_trees_3764f7_top10_current/molecules/af0fa5ab6b68df64.png" width="250px" height="160px" preserveAspectRatio="xMinYMin meet" x="4872" y="-1853"/>
<polygon fill="none" stroke="#bdbdbd" points="4867,-1669 4867,-1688 5127,-1688 5127,-1669 4867,-1669"/>
<text text-anchor="start" x="4905" y="-1676.6" font-family="Arial" font-size="8.00">CCOC(=O)/C=C/c1c(Cl)nc(N(C)S(C)(=O)=O)nc1...</text>
</g>
<!-- n15 -->
<g id="node16" class="node">
<title>n15</title>
<polygon fill="#edf6e7" stroke="transparent" points="7527,-1974 7527,-1995 7787,-1995 7787,-1974 7527,-1974"/>
<polygon fill="none" stroke="#5f8f3d" points="7527,-1974 7527,-1995 7787,-1995 7787,-1974 7527,-1974"/>
<text text-anchor="start" x="7630.5" y="-1983" font-family="Arial" font-weight="bold" font-size="10.00">TERMINAL</text>
<polygon fill="none" stroke="#5f8f3d" points="7527,-1804 7527,-1974 7787,-1974 7787,-1804 7527,-1804"/>
<image xlink:href="results/v2/route_trees_3764f7_top10_current/molecules/02fd5b9f346a5db9.png" width="250px" height="160px" preserveAspectRatio="xMinYMin meet" x="7532" y="-1969"/>
<polygon fill="none" stroke="#5f8f3d" points="7527,-1785 7527,-1804 7787,-1804 7787,-1785 7527,-1785"/>
<text text-anchor="start" x="7575.5" y="-1792.6" font-family="Arial" font-size="8.00">CCOC(=O)C=P(c1ccccc1)(c1ccccc1)c1ccccc1</text>
</g>
<!-- n16 -->
<g id="node17" class="node">
<title>n16</title>
<polygon fill="#ffffff" stroke="transparent" points="5288,-1741 5288,-1762 5548,-1762 5548,-1741 5288,-1741"/>
<polygon fill="none" stroke="#bdbdbd" points="5288,-1741 5288,-1762 5548,-1762 5548,-1741 5288,-1741"/>
<text text-anchor="start" x="5380" y="-1750" font-family="Arial" font-weight="bold" font-size="10.00">INTERMEDIATE</text>
<polygon fill="none" stroke="#bdbdbd" points="5288,-1571 5288,-1741 5548,-1741 5548,-1571 5288,-1571"/>
<image xlink:href="results/v2/route_trees_3764f7_top10_current/molecules/4fff0bd9b8e6031a.png" width="250px" height="160px" preserveAspectRatio="xMinYMin meet" x="5293" y="-1736"/>
<polygon fill="none" stroke="#bdbdbd" points="5288,-1552 5288,-1571 5548,-1571 5548,-1552 5288,-1552"/>
<text text-anchor="start" x="5340" y="-1559.6" font-family="Arial" font-size="8.00">CC(C)c1nc(N(C)S(C)(=O)=O)nc(Cl)c1C=O</text>
</g>
<!-- n17 -->
<g id="node18" class="node">
<title>n17</title>
<polygon fill="#ffffff" stroke="transparent" points="5709,-1599 5709,-1620 5969,-1620 5969,-1599 5709,-1599"/>
<polygon fill="none" stroke="#bdbdbd" points="5709,-1599 5709,-1620 5969,-1620 5969,-1599 5709,-1599"/>
<text text-anchor="start" x="5801" y="-1608" font-family="Arial" font-weight="bold" font-size="10.00">INTERMEDIATE</text>
<polygon fill="none" stroke="#bdbdbd" points="5709,-1429 5709,-1599 5969,-1599 5969,-1429 5709,-1429"/>
<image xlink:href="results/v2/route_trees_3764f7_top10_current/molecules/9ee23e7458293734.png" width="250px" height="160px" preserveAspectRatio="xMinYMin meet" x="5714" y="-1594"/>
<polygon fill="none" stroke="#bdbdbd" points="5709,-1410 5709,-1429 5969,-1429 5969,-1410 5709,-1410"/>
<text text-anchor="start" x="5763.5" y="-1417.6" font-family="Arial" font-size="8.00">CC(C)c1nc(N(C)S(C)(=O)=O)nc(Cl)c1CO</text>
</g>
<!-- n18 -->
<g id="node19" class="node">
<title>n18</title>
<polygon fill="#ffffff" stroke="transparent" points="6200,-1577 6200,-1598 6460,-1598 6460,-1577 6200,-1577"/>
<polygon fill="none" stroke="#bdbdbd" points="6200,-1577 6200,-1598 6460,-1598 6460,-1577 6200,-1577"/>
<text text-anchor="start" x="6292" y="-1586" font-family="Arial" font-weight="bold" font-size="10.00">INTERMEDIATE</text>
<polygon fill="none" stroke="#bdbdbd" points="6200,-1407 6200,-1577 6460,-1577 6460,-1407 6200,-1407"/>
<image xlink:href="results/v2/route_trees_3764f7_top10_current/molecules/9184248d5d863429.png" width="250px" height="160px" preserveAspectRatio="xMinYMin meet" x="6205" y="-1572"/>
<polygon fill="none" stroke="#bdbdbd" points="6200,-1388 6200,-1407 6460,-1407 6460,-1388 6200,-1388"/>
<text text-anchor="start" x="6240" y="-1395.6" font-family="Arial" font-size="8.00">CCOC(=O)c1c(Cl)nc(N(C)S(C)(=O)=O)nc1C(C)C</text>
</g>
<!-- n19 -->
<g id="node20" class="node">
<title>n19</title>
<polygon fill="#ffffff" stroke="transparent" points="6621,-1577 6621,-1598 6881,-1598 6881,-1577 6621,-1577"/>
<polygon fill="none" stroke="#bdbdbd" points="6621,-1577 6621,-1598 6881,-1598 6881,-1577 6621,-1577"/>
<text text-anchor="start" x="6713" y="-1586" font-family="Arial" font-weight="bold" font-size="10.00">INTERMEDIATE</text>
<polygon fill="none" stroke="#bdbdbd" points="6621,-1407 6621,-1577 6881,-1577 6881,-1407 6621,-1407"/>
<image xlink:href="results/v2/route_trees_3764f7_top10_current/molecules/61cf0dbc95c82852.png" width="250px" height="160px" preserveAspectRatio="xMinYMin meet" x="6626" y="-1572"/>
<polygon fill="none" stroke="#bdbdbd" points="6621,-1388 6621,-1407 6881,-1407 6881,-1388 6621,-1388"/>
<text text-anchor="start" x="6667" y="-1395.6" font-family="Arial" font-size="8.00">CCOC(=O)c1c(Cl)nc(NS(C)(=O)=O)nc1C(C)C</text>
</g>
<!-- n20 -->
<g id="node21" class="node">
<title>n20</title>
<polygon fill="#edf6e7" stroke="transparent" points="7527,-954 7527,-975 7787,-975 7787,-954 7527,-954"/>
<polygon fill="none" stroke="#5f8f3d" points="7527,-954 7527,-975 7787,-975 7787,-954 7527,-954"/>
<text text-anchor="start" x="7630.5" y="-963" font-family="Arial" font-weight="bold" font-size="10.00">TERMINAL</text>
<polygon fill="none" stroke="#5f8f3d" points="7527,-784 7527,-954 7787,-954 7787,-784 7527,-784"/>
<image xlink:href="results/v2/route_trees_3764f7_top10_current/molecules/13844228ea43240b.png" width="250px" height="160px" preserveAspectRatio="xMinYMin meet" x="7532" y="-949"/>
<polygon fill="none" stroke="#5f8f3d" points="7527,-765 7527,-784 7787,-784 7787,-765 7527,-765"/>
<text text-anchor="start" x="7652.5" y="-772.6" font-family="Arial" font-size="8.00">CI</text>
</g>
<!-- n21 -->
<g id="node22" class="node">
<title>n21</title>
<polygon fill="#edf6e7" stroke="transparent" points="7527,-1719 7527,-1740 7787,-1740 7787,-1719 7527,-1719"/>
<polygon fill="none" stroke="#5f8f3d" points="7527,-1719 7527,-1740 7787,-1740 7787,-1719 7527,-1719"/>
<text text-anchor="start" x="7630.5" y="-1728" font-family="Arial" font-weight="bold" font-size="10.00">TERMINAL</text>
<polygon fill="none" stroke="#5f8f3d" points="7527,-1549 7527,-1719 7787,-1719 7787,-1549 7527,-1549"/>
<image xlink:href="results/v2/route_trees_3764f7_top10_current/molecules/e382f87867ea8d4c.png" width="250px" height="160px" preserveAspectRatio="xMinYMin meet" x="7532" y="-1714"/>
<polygon fill="none" stroke="#5f8f3d" points="7527,-1530 7527,-1549 7787,-1549 7787,-1530 7527,-1530"/>
<text text-anchor="start" x="7631" y="-1537.6" font-family="Arial" font-size="8.00">CS(=O)(=O)Cl</text>
</g>
<!-- n22 -->
<g id="node23" class="node">
<title>n22</title>
<polygon fill="#ffffff" stroke="transparent" points="7042,-1464 7042,-1485 7302,-1485 7302,-1464 7042,-1464"/>
<polygon fill="none" stroke="#bdbdbd" points="7042,-1464 7042,-1485 7302,-1485 7302,-1464 7042,-1464"/>
<text text-anchor="start" x="7134" y="-1473" font-family="Arial" font-weight="bold" font-size="10.00">INTERMEDIATE</text>
<polygon fill="none" stroke="#bdbdbd" points="7042,-1294 7042,-1464 7302,-1464 7302,-1294 7042,-1294"/>
<image xlink:href="results/v2/route_trees_3764f7_top10_current/molecules/1acbebb23fff8399.png" width="250px" height="160px" preserveAspectRatio="xMinYMin meet" x="7047" y="-1459"/>
<polygon fill="none" stroke="#bdbdbd" points="7042,-1275 7042,-1294 7302,-1294 7302,-1275 7042,-1275"/>
<text text-anchor="start" x="7110" y="-1282.6" font-family="Arial" font-size="8.00">CCOC(=O)c1c(Cl)nc(N)nc1C(C)C</text>
</g>
<!-- n23 -->
<g id="node24" class="node">
<title>n23</title>
<polygon fill="#edf6e7" stroke="transparent" points="7527,-1464 7527,-1485 7787,-1485 7787,-1464 7527,-1464"/>
<polygon fill="none" stroke="#5f8f3d" points="7527,-1464 7527,-1485 7787,-1485 7787,-1464 7527,-1464"/>
<text text-anchor="start" x="7630.5" y="-1473" font-family="Arial" font-weight="bold" font-size="10.00">TERMINAL</text>
<polygon fill="none" stroke="#5f8f3d" points="7527,-1294 7527,-1464 7787,-1464 7787,-1294 7527,-1294"/>
<image xlink:href="results/v2/route_trees_3764f7_top10_current/molecules/080a31fd9fe01d55.png" width="250px" height="160px" preserveAspectRatio="xMinYMin meet" x="7532" y="-1459"/>
<polygon fill="none" stroke="#5f8f3d" points="7527,-1275 7527,-1294 7787,-1294 7787,-1275 7527,-1275"/>
<text text-anchor="start" x="7610" y="-1282.6" font-family="Arial" font-size="8.00">CCOC(=O)CC(=O)C(C)C</text>
</g>
<!-- n24 -->
<g id="node25" class="node">
<title>n24</title>
<polygon fill="#edf6e7" stroke="transparent" points="7527,-1209 7527,-1230 7787,-1230 7787,-1209 7527,-1209"/>
<polygon fill="none" stroke="#5f8f3d" points="7527,-1209 7527,-1230 7787,-1230 7787,-1209 7527,-1209"/>
<text text-anchor="start" x="7630.5" y="-1218" font-family="Arial" font-weight="bold" font-size="10.00">TERMINAL</text>
<polygon fill="none" stroke="#5f8f3d" points="7527,-1039 7527,-1209 7787,-1209 7787,-1039 7527,-1039"/>
<image xlink:href="results/v2/route_trees_3764f7_top10_current/molecules/719befc7e9f897e9.png" width="250px" height="160px" preserveAspectRatio="xMinYMin meet" x="7532" y="-1204"/>
<polygon fill="none" stroke="#5f8f3d" points="7527,-1020 7527,-1039 7787,-1039 7787,-1020 7527,-1020"/>
<text text-anchor="start" x="7639.5" y="-1027.6" font-family="Arial" font-size="8.00">N=C(N)N</text>
</g>
<!-- n25 -->
<g id="node26" class="node">
<title>n25</title>
<polygon fill="#edf6e7" stroke="transparent" points="7527,-444 7527,-465 7787,-465 7787,-444 7527,-444"/>
<polygon fill="none" stroke="#5f8f3d" points="7527,-444 7527,-465 7787,-465 7787,-444 7527,-444"/>
<text text-anchor="start" x="7630.5" y="-453" font-family="Arial" font-weight="bold" font-size="10.00">TERMINAL</text>
<polygon fill="none" stroke="#5f8f3d" points="7527,-274 7527,-444 7787,-444 7787,-274 7527,-274"/>
<image xlink:href="results/v2/route_trees_3764f7_top10_current/molecules/1514bef6b5d440fc.png" width="250px" height="160px" preserveAspectRatio="xMinYMin meet" x="7532" y="-439"/>
<polygon fill="none" stroke="#5f8f3d" points="7527,-255 7527,-274 7787,-274 7787,-255 7527,-255"/>
<text text-anchor="start" x="7619" y="-262.6" font-family="Arial" font-size="8.00">COC(=O)CC(=O)OC</text>
</g>
</g>
</svg>
