<?xml version="1.0" encoding="UTF-8" standalone="no"?>
<!DOCTYPE svg PUBLIC "-//W3C//DTD SVG 1.1//EN"
 "http://www.w3.org/Graphics/SVG/1.1/DTD/svg11.dtd">
<!-- Generated by graphviz version 2.43.0 (0)
 -->
<!-- Title: RouteTree Pages: 1 -->
<svg width="7901pt" height="2323pt"
 viewBox="0.00 0.00 7901.40 2323.40" xmlns="http://www.w3.org/2000/svg" xmlns:xlink="http://www.w3.org/1999/xlink">
<g id="graph0" class="graph" transform="scale(1 1) rotate(0) translate(25.2 2298.2)">
<title>RouteTree</title>
<polygon fill="white" stroke="transparent" points="-25.2,25.2 -25.2,-2298.2 7876.2,-2298.2 7876.2,25.2 -25.2,25.2"/>
<text text-anchor="start" x="3478" y="-2257.8" font-family="Times,serif" font-size="14.00">Route 04 | 17 steps | score 0.00149 | triage_fragment | acylating_piece_present, aryl_coupling_hint, carrier_reagent_terminal</text>
<!-- n0&#45;&gt;n1 -->
<g id="edge1" class="edge">
<title>n0&#45;&gt;n1</title>
<path fill="none" stroke="#333333" stroke-width="1.2" d="M260.26,-177.89C326.7,-196.86 407.65,-219.96 475.03,-239.19"/>
<polygon fill="#333333" stroke="#333333" stroke-width="1.2" points="474.52,-241.59 481.92,-241.16 475.86,-236.88 474.52,-241.59"/>
<text text-anchor="middle" x="371" y="-231.8" font-family="Arial" font-size="9.00">S1.1 | enzymatic | EC 1.1.1.100 | 33 C</text>
</g>
<!-- n0&#45;&gt;n2 -->
<g id="edge2" class="edge">
<title>n0&#45;&gt;n2</title>
<path fill="none" stroke="#333333" stroke-width="1.2" d="M260.17,-126.05C356.68,-116.15 491.92,-105 611,-105 611,-105 611,-105 7237,-105 7353.98,-105 7486.91,-105 7583.65,-105"/>
<polygon fill="#333333" stroke="#333333" stroke-width="1.2" points="7583.85,-107.45 7590.85,-105 7583.85,-102.55 7583.85,-107.45"/>
<text text-anchor="middle" x="4087" y="-107.8" font-family="Arial" font-size="9.00">S1.2 | enzymatic | EC 1.1.1.100 | 33 C</text>
</g>
<!-- n1&#45;&gt;n3 -->
<g id="edge3" class="edge">
<title>n1&#45;&gt;n3</title>
<path fill="none" stroke="#333333" stroke-width="1.2" d="M742.06,-288.8C811.14,-294.58 896.21,-301.7 966.4,-307.57"/>
<polygon fill="#333333" stroke="#333333" stroke-width="1.2" points="966.4,-310.03 973.58,-308.17 966.81,-305.15 966.4,-310.03"/>
<text text-anchor="middle" x="858" y="-306.8" font-family="Arial" font-size="9.00">S2.1 | enzymatic | EC 1.14.14.155 | 77 C</text>
</g>
<!-- n3&#45;&gt;n4 -->
<g id="edge4" class="edge">
<title>n3&#45;&gt;n4</title>
<path fill="none" stroke="#333333" stroke-width="1.2" d="M1234.29,-330.23C1298.41,-335.8 1375.85,-342.53 1440.88,-348.18"/>
<polygon fill="#333333" stroke="#333333" stroke-width="1.2" points="1440.75,-350.62 1447.93,-348.79 1441.17,-345.74 1440.75,-350.62"/>
<text text-anchor="middle" x="1341" y="-347.8" font-family="Arial" font-size="9.00">S3.1 | enzymatic | EC 5.3.3.1 | &#45;60 C</text>
</g>
<!-- n4&#45;&gt;n5 -->
<g id="edge5" class="edge">
<title>n4&#45;&gt;n5</title>
<path fill="none" stroke="#333333" stroke-width="1.2" d="M1708.26,-406.59C1774.7,-430.54 1855.65,-459.71 1923.03,-483.99"/>
<polygon fill="#333333" stroke="#333333" stroke-width="1.2" points="1922.51,-486.41 1929.92,-486.48 1924.17,-481.8 1922.51,-486.41"/>
<text text-anchor="middle" x="1819" y="-474.8" font-family="Arial" font-size="9.00">S4.1 | enzymatic | EC 1.13.11.5 | 21 C</text>
</g>
<!-- n4&#45;&gt;n6 -->
<g id="edge6" class="edge">
<title>n4&#45;&gt;n6</title>
<path fill="none" stroke="#333333" stroke-width="1.2" d="M1708.11,-360C1848.86,-360 2073.11,-360 2216.64,-360"/>
<polygon fill="#333333" stroke="#333333" stroke-width="1.2" points="2216.84,-362.45 2223.84,-360 2216.84,-357.55 2216.84,-362.45"/>
<text text-anchor="middle" x="1819" y="-362.8" font-family="Arial" font-size="9.00">S4.2 | enzymatic | EC 1.13.11.5 | 21 C</text>
</g>
<!-- n5&#45;&gt;n7 -->
<g id="edge7" class="edge">
<title>n5&#45;&gt;n7</title>
<path fill="none" stroke="#333333" stroke-width="1.2" d="M2190.33,-542.05C2285.27,-548.69 2413.98,-557.7 2510.56,-564.45"/>
<polygon fill="#333333" stroke="#333333" stroke-width="1.2" points="2510.6,-566.91 2517.75,-564.96 2510.94,-562.02 2510.6,-566.91"/>
<text text-anchor="middle" x="2354" y="-563.8" font-family="Arial" font-size="9.00">S5.1 | enzymatic | EC 5.3.3.&#45; | 46 C</text>
</g>
<!-- n6&#45;&gt;n25 -->
<g id="edge25" class="edge">
<title>n6&#45;&gt;n25</title>
<path fill="none" stroke="#333333" stroke-width="1.2" d="M2484,-360C2591.74,-360 2749.38,-360 2887,-360 2887,-360 2887,-360 7237,-360 7353.98,-360 7486.91,-360 7583.65,-360"/>
<polygon fill="#333333" stroke="#333333" stroke-width="1.2" points="7583.85,-362.45 7590.85,-360 7583.85,-357.55 7583.85,-362.45"/>
<text text-anchor="middle" x="5061" y="-362.8" font-family="Arial" font-size="9.00">S17.1 | enzymatic | EC 3.1.1.&#45; | 130 C</text>
</g>
<!-- n7&#45;&gt;n8 -->
<g id="edge8" class="edge">
<title>n7&#45;&gt;n8</title>
<path fill="none" stroke="#333333" stroke-width="1.2" d="M2778.04,-585.07C2843.8,-590.71 2923.77,-597.57 2990.55,-603.3"/>
<polygon fill="#333333" stroke="#333333" stroke-width="1.2" points="2990.61,-605.76 2997.79,-603.92 2991.03,-600.88 2990.61,-605.76"/>
<text text-anchor="middle" x="2888" y="-602.8" font-family="Arial" font-size="9.00">S6.1 | ChemEnzyRetroPlanner | 35 C</text>
</g>
<!-- n8&#45;&gt;n9 -->
<g id="edge9" class="edge">
<title>n8&#45;&gt;n9</title>
<path fill="none" stroke="#333333" stroke-width="1.2" d="M3258.08,-661.82C3323.7,-685.62 3403.43,-714.53 3470,-738.68"/>
<polygon fill="#333333" stroke="#333333" stroke-width="1.2" points="3469.4,-741.06 3476.81,-741.15 3471.07,-736.46 3469.4,-741.06"/>
<text text-anchor="middle" x="3367.5" y="-729.8" font-family="Arial" font-size="9.00">S7.1 | enzymatic | EC 4.1.2.47 | &#45;70 C</text>
</g>
<!-- n8&#45;&gt;n10 -->
<g id="edge10" class="edge">
<title>n8&#45;&gt;n10</title>
<path fill="none" stroke="#333333" stroke-width="1.2" d="M3258.06,-615C3354.03,-615 3488.2,-615 3606,-615 3606,-615 3606,-615 7237,-615 7353.98,-615 7486.91,-615 7583.65,-615"/>
<polygon fill="#333333" stroke="#333333" stroke-width="1.2" points="7583.85,-617.45 7590.85,-615 7583.85,-612.55 7583.85,-617.45"/>
<text text-anchor="middle" x="5482" y="-617.8" font-family="Arial" font-size="9.00">S7.2 | enzymatic | EC 4.1.2.47 | &#45;70 C</text>
</g>
<!-- n9&#45;&gt;n11 -->
<g id="edge11" class="edge">
<title>n9&#45;&gt;n11</title>
<path fill="none" stroke="#333333" stroke-width="1.2" d="M3702.44,-893.11C3784.55,-984.49 3903.13,-1116.47 3986.65,-1209.43"/>
<polygon fill="#333333" stroke="#333333" stroke-width="1.2" points="3984.85,-1211.09 3991.35,-1214.66 3988.49,-1207.81 3984.85,-1211.09"/>
<text text-anchor="middle" x="3847" y="-1134.8" font-family="Arial" font-size="9.00">S8.1 | ChemEnzyRetroPlanner | 22 C</text>
</g>
<!-- n11&#45;&gt;n12 -->
<g id="edge12" class="edge">
<title>n11&#45;&gt;n12</title>
<path fill="none" stroke="#333333" stroke-width="1.2" d="M4199.26,-1425.01C4275,-1496.5 4375.06,-1590.95 4451.99,-1663.56"/>
<polygon fill="#333333" stroke="#333333" stroke-width="1.2" points="4450.72,-1665.73 4457.49,-1668.75 4454.08,-1662.16 4450.72,-1665.73"/>
<text text-anchor="middle" x="4328.5" y="-1616.8" font-family="Arial" font-size="9.00">S9.1 | ChemEnzyRetroPlanner | &#45;58 C</text>
</g>
<!-- n12&#45;&gt;n13 -->
<g id="edge13" class="edge">
<title>n12&#45;&gt;n13</title>
<path fill="none" stroke="#333333" stroke-width="1.2" d="M4644.23,-1879.32C4730.01,-1989.01 4883.1,-2145 5060,-2145 5060,-2145 5060,-2145 7237,-2145 7353.98,-2145 7486.91,-2145 7583.65,-2145"/>
<polygon fill="#333333" stroke="#333333" stroke-width="1.2" points="7583.85,-2147.45 7590.85,-2145 7583.85,-2142.55 7583.85,-2147.45"/>
<text text-anchor="middle" x="6148.5" y="-2147.8" font-family="Arial" font-size="9.00">S10.1 | ChemEnzyRetroPlanner | 105 C</text>
</g>
<!-- n12&#45;&gt;n14 -->
<g id="edge14" class="edge">
<title>n12&#45;&gt;n14</title>
<path fill="none" stroke="#333333" stroke-width="1.2" d="M4700.12,-1774C4768.92,-1774 4853.54,-1774 4923.43,-1774"/>
<polygon fill="#333333" stroke="#333333" stroke-width="1.2" points="4923.58,-1776.45 4930.58,-1774 4923.58,-1771.55 4923.58,-1776.45"/>
<text text-anchor="middle" x="4815.5" y="-1776.8" font-family="Arial" font-size="9.00">S10.2 | ChemEnzyRetroPlanner | 105 C</text>
</g>
<!-- n14&#45;&gt;n15 -->
<g id="edge15" class="edge">
<title>n14&#45;&gt;n15</title>
<path fill="none" stroke="#333333" stroke-width="1.2" d="M5191.09,-1829.11C5272.67,-1859.04 5381.18,-1890 5481,-1890 5481,-1890 5481,-1890 7237,-1890 7353.98,-1890 7486.91,-1890 7583.65,-1890"/>
<polygon fill="#333333" stroke="#333333" stroke-width="1.2" points="7583.85,-1892.45 7590.85,-1890 7583.85,-1887.55 7583.85,-1892.45"/>
<text text-anchor="middle" x="6394" y="-1892.8" font-family="Arial" font-size="9.00">S11.1 | template | 57 C</text>
</g>
<!-- n14&#45;&gt;n16 -->
<g id="edge16" class="edge">
<title>n14&#45;&gt;n16</title>
<path fill="none" stroke="#333333" stroke-width="1.2" d="M5191.13,-1737.94C5239.93,-1724.31 5295.59,-1708.77 5345,-1694.98"/>
<polygon fill="#333333" stroke="#333333" stroke-width="1.2" points="5345.85,-1697.28 5351.93,-1693.04 5344.53,-1692.56 5345.85,-1697.28"/>
<text text-anchor="middle" x="5271.5" y="-1727.8" font-family="Arial" font-size="9.00">S11.2 | template | 57 C</text>
</g>
<!-- n16&#45;&gt;n17 -->
<g id="edge17" class="edge">
<title>n16&#45;&gt;n17</title>
<path fill="none" stroke="#333333" stroke-width="1.2" d="M5612.13,-1613.24C5660.93,-1596.7 5716.59,-1577.84 5766,-1561.09"/>
<polygon fill="#333333" stroke="#333333" stroke-width="1.2" points="5767.09,-1563.31 5772.93,-1558.74 5765.52,-1558.67 5767.09,-1563.31"/>
<text text-anchor="middle" x="5692.5" y="-1600.8" font-family="Arial" font-size="9.00">S12.1 | template | 18 C</text>
</g>
<!-- n17&#45;&gt;n18 -->
<g id="edge18" class="edge">
<title>n17&#45;&gt;n18</title>
<path fill="none" stroke="#333333" stroke-width="1.2" d="M6033.12,-1509.19C6101.92,-1506.1 6186.54,-1502.29 6256.43,-1499.14"/>
<polygon fill="#333333" stroke="#333333" stroke-width="1.2" points="6256.7,-1501.58 6263.58,-1498.82 6256.48,-1496.69 6256.7,-1501.58"/>
<text text-anchor="middle" x="6148.5" y="-1509.8" font-family="Arial" font-size="9.00">S13.1 | template | &#45;43 C</text>
</g>
<!-- n18&#45;&gt;n19 -->
<g id="edge19" class="edge">
<title>n18&#45;&gt;n19</title>
<path fill="none" stroke="#333333" stroke-width="1.2" d="M6524.13,-1493C6572.83,-1493 6628.36,-1493 6677.7,-1493"/>
<polygon fill="#333333" stroke="#333333" stroke-width="1.2" points="6677.93,-1495.45 6684.93,-1493 6677.93,-1490.55 6677.93,-1495.45"/>
<text text-anchor="middle" x="6604.5" y="-1495.8" font-family="Arial" font-size="9.00">S14.1 | template | 38 C</text>
</g>
<!-- n18&#45;&gt;n20 -->
<g id="edge20" class="edge">
<title>n18&#45;&gt;n20</title>
<path fill="none" stroke="#333333" stroke-width="1.2" d="M6524.16,-1432.27C6775.52,-1314.08 7328.24,-1054.2 7584.55,-933.69"/>
<polygon fill="#333333" stroke="#333333" stroke-width="1.2" points="7585.63,-935.89 7590.92,-930.69 7583.54,-931.45 7585.63,-935.89"/>
<text text-anchor="middle" x="7025.5" y="-1219.8" font-family="Arial" font-size="9.00">S14.2 | template | 38 C</text>
</g>
<!-- n19&#45;&gt;n21 -->
<g id="edge21" class="edge">
<title>n19&#45;&gt;n21</title>
<path fill="none" stroke="#333333" stroke-width="1.2" d="M6945.04,-1513.27C7114.53,-1539.89 7410.84,-1586.44 7583.81,-1613.61"/>
<polygon fill="#333333" stroke="#333333" stroke-width="1.2" points="7583.64,-1616.06 7590.94,-1614.73 7584.4,-1611.22 7583.64,-1616.06"/>
<text text-anchor="middle" x="7236" y="-1580.8" font-family="Arial" font-size="9.00">S15.1 | template | 12 C</text>
</g>
<!-- n19&#45;&gt;n22 -->
<g id="edge22" class="edge">
<title>n19&#45;&gt;n22</title>
<path fill="none" stroke="#333333" stroke-width="1.2" d="M6945.13,-1458.17C6993.93,-1445.01 7049.59,-1430 7099,-1416.68"/>
<polygon fill="#333333" stroke="#333333" stroke-width="1.2" points="7099.81,-1419 7105.93,-1414.81 7098.54,-1414.27 7099.81,-1419"/>
<text text-anchor="middle" x="7025.5" y="-1448.8" font-family="Arial" font-size="9.00">S15.2 | template | 12 C</text>
</g>
<!-- n22&#45;&gt;n23 -->
<g id="edge23" class="edge">
<title>n22&#45;&gt;n23</title>
<path fill="none" stroke="#333333" stroke-width="1.2" d="M7366.12,-1380C7433.25,-1380 7515.3,-1380 7583.49,-1380"/>
<polygon fill="#333333" stroke="#333333" stroke-width="1.2" points="7583.88,-1382.45 7590.88,-1380 7583.88,-1377.55 7583.88,-1382.45"/>
<text text-anchor="middle" x="7478.5" y="-1382.8" font-family="Arial" font-size="9.00">S16.1 | ChemEnzyRetroPlanner | 39 C</text>
</g>
<!-- n22&#45;&gt;n24 -->
<g id="edge24" class="edge">
<title>n22&#45;&gt;n24</title>
<path fill="none" stroke="#333333" stroke-width="1.2" d="M7366.12,-1311.83C7433.53,-1276.24 7515.97,-1232.72 7584.31,-1196.64"/>
<polygon fill="#333333" stroke="#333333" stroke-width="1.2" points="7585.84,-1198.6 7590.88,-1193.17 7583.55,-1194.27 7585.84,-1198.6"/>
<text text-anchor="middle" x="7478.5" y="-1292.8" font-family="Arial" font-size="9.00">S16.2 | ChemEnzyRetroPlanner | 39 C</text>
</g>
<!-- n0 -->
<g id="node1" class="node">
<title>n0</title>
<polygon fill="#f0f0f0" stroke="transparent" points="0,-225 0,-246 260,-246 260,-225 0,-225"/>
<polygon fill="none" stroke="#111111" points="0,-225 0,-246 260,-246 260,-225 0,-225"/>
<text text-anchor="start" x="109.5" y="-234" font-family="Arial" font-weight="bold" font-size="10.00">TARGET</text>
<polygon fill="none" stroke="#111111" points="0,-55 0,-225 260,-225 260,-55 0,-55"/>
<image xlink:href="results/v2/route_trees_3764f7_top10_current/molecules/0b6996454ae09fe2.png" width="250px" height="160px" preserveAspectRatio="xMinYMin meet" x="5" y="-220"/>
<polygon fill="none" stroke="#111111" points="0,-36 0,-55 260,-55 260,-36 0,-36"/>
<text text-anchor="start" x="28" y="-43.6" font-family="Arial" font-size="8.00">CC(C)C1=NC(=NC(=C1/C=C/[C@H](C[C@H](CC(=O...</text>
</g>
<!-- n1 -->
<g id="node2" class="node">
<title>n1</title>
<polygon fill="#ffffff" stroke="transparent" points="482,-362 482,-383 742,-383 742,-362 482,-362"/>
<polygon fill="none" stroke="#bdbdbd" points="482,-362 482,-383 742,-383 742,-362 482,-362"/>
<text text-anchor="start" x="574" y="-371" font-family="Arial" font-weight="bold" font-size="10.00">INTERMEDIATE</text>
<polygon fill="none" stroke="#bdbdbd" points="482,-192 482,-362 742,-362 742,-192 482,-192"/>
<image xlink:href="results/v2/route_trees_3764f7_top10_current/molecules/6a59dcc7d161d513.png" width="250px" height="160px" preserveAspectRatio="xMinYMin meet" x="487" y="-357"/>
<polygon fill="none" stroke="#bdbdbd" points="482,-173 482,-192 742,-192 742,-173 482,-173"/>
<text text-anchor="start" x="524" y="-180.6" font-family="Arial" font-size="8.00">CC(C)c1nc(N(C)S(C)(=O)=O)nc(&#45;c2ccc(F)cc2)...</text>
</g>
<!-- n2 -->
<g id="node3" class="node">
<title>n2</title>
<polygon fill="#edf6e7" stroke="transparent" points="7591,-189 7591,-210 7851,-210 7851,-189 7591,-189"/>
<polygon fill="none" stroke="#5f8f3d" points="7591,-189 7591,-210 7851,-210 7851,-189 7591,-189"/>
<text text-anchor="start" x="7694.5" y="-198" font-family="Arial" font-weight="bold" font-size="10.00">TERMINAL</text>
<polygon fill="none" stroke="#5f8f3d" points="7591,-19 7591,-189 7851,-189 7851,-19 7591,-19"/>
<image xlink:href="results/v2/route_trees_3764f7_top10_current/molecules/5c7f96ee7e82d868.png" width="250px" height="160px" preserveAspectRatio="xMinYMin meet" x="7596" y="-184"/>
<polygon fill="none" stroke="#5f8f3d" points="7591,0 7591,-19 7851,-19 7851,0 7591,0"/>
<text text-anchor="start" x="7711" y="-7.6" font-family="Arial" font-size="8.00">[OH&#45;]</text>
</g>
<!-- n3 -->
<g id="node4" class="node">
<title>n3</title>
<polygon fill="#ffffff" stroke="transparent" points="974,-403 974,-424 1234,-424 1234,-403 974,-403"/>
<polygon fill="none" stroke="#bdbdbd" points="974,-403 974,-424 1234,-424 1234,-403 974,-403"/>
<text text-anchor="start" x="1066" y="-412" font-family="Arial" font-weight="bold" font-size="10.00">INTERMEDIATE</text>
<polygon fill="none" stroke="#bdbdbd" points="974,-233 974,-403 1234,-403 1234,-233 974,-233"/>
<image xlink:href="results/v2/route_trees_3764f7_top10_current/molecules/e29273f4eef25340.png" width="250px" height="160px" preserveAspectRatio="xMinYMin meet" x="979" y="-398"/>
<polygon fill="none" stroke="#bdbdbd" points="974,-214 974,-233 1234,-233 1234,-214 974,-214"/>
<text text-anchor="start" x="1009.5" y="-221.6" font-family="Arial" font-size="8.00">COC(=O)C[C@H](O)C[C@H](O)/C=C/c1c(&#45;c2ccc(...</text>
</g>
<!-- n4 -->
<g id="node5" class="node">
<title>n4</title>
<polygon fill="#ffffff" stroke="transparent" points="1448,-444 1448,-465 1708,-465 1708,-444 1448,-444"/>
<polygon fill="none" stroke="#bdbdbd" points="1448,-444 1448,-465 1708,-465 1708,-444 1448,-444"/>
<text text-anchor="start" x="1540" y="-453" font-family="Arial" font-weight="bold" font-size="10.00">INTERMEDIATE</text>
<polygon fill="none" stroke="#bdbdbd" points="1448,-274 1448,-444 1708,-444 1708,-274 1448,-274"/>
<image xlink:href="results/v2/route_trees_3764f7_top10_current/molecules/e540e1696959b9d5.png" width="250px" height="160px" preserveAspectRatio="xMinYMin meet" x="1453" y="-439"/>
<polygon fill="none" stroke="#bdbdbd" points="1448,-255 1448,-274 1708,-274 1708,-255 1448,-255"/>
<text text-anchor="start" x="1484.5" y="-262.6" font-family="Arial" font-size="8.00">COC(=O)CC(=O)C[C@H](O)/C=C/c1c(&#45;c2ccc(F)c...</text>
</g>
<!-- n5 -->
<g id="node6" class="node">
<title>n5</title>
<polygon fill="#ffffff" stroke="transparent" points="1930,-617 1930,-638 2190,-638 2190,-617 1930,-617"/>
<polygon fill="none" stroke="#bdbdbd" points="1930,-617 1930,-638 2190,-638 2190,-617 1930,-617"/>
<text text-anchor="start" x="2022" y="-626" font-family="Arial" font-weight="bold" font-size="10.00">INTERMEDIATE</text>
<polygon fill="none" stroke="#bdbdbd" points="1930,-447 1930,-617 2190,-617 2190,-447 1930,-447"/>
<image xlink:href="results/v2/route_trees_3764f7_top10_current/molecules/0205dc34e441121a.png" width="250px" height="160px" preserveAspectRatio="xMinYMin meet" x="1935" y="-612"/>
<polygon fill="none" stroke="#bdbdbd" points="1930,-428 1930,-447 2190,-447 2190,-428 1930,-428"/>
<text text-anchor="start" x="1972" y="-435.6" font-family="Arial" font-size="8.00">CC(C)c1nc(N(C)S(C)(=O)=O)nc(&#45;c2ccc(F)cc2)...</text>
</g>
<!-- n6 -->
<g id="node7" class="node">
<title>n6</title>
<polygon fill="#ffffff" stroke="transparent" points="2224,-444 2224,-465 2484,-465 2484,-444 2224,-444"/>
<polygon fill="none" stroke="#bdbdbd" points="2224,-444 2224,-465 2484,-465 2484,-444 2224,-444"/>
<text text-anchor="start" x="2316" y="-453" font-family="Arial" font-weight="bold" font-size="10.00">INTERMEDIATE</text>
<polygon fill="none" stroke="#bdbdbd" points="2224,-274 2224,-444 2484,-444 2484,-274 2224,-274"/>
<image xlink:href="results/v2/route_trees_3764f7_top10_current/molecules/6597368e79aef144.png" width="250px" height="160px" preserveAspectRatio="xMinYMin meet" x="2229" y="-439"/>
<polygon fill="none" stroke="#bdbdbd" points="2224,-255 2224,-274 2484,-274 2484,-255 2224,-255"/>
<text text-anchor="start" x="2315.5" y="-262.6" font-family="Arial" font-size="8.00">COC(=O)CC(=O)[O&#45;]</text>
</g>
<!-- n7 -->
<g id="node8" class="node">
<title>n7</title>
<polygon fill="#ffffff" stroke="transparent" points="2518,-658 2518,-679 2778,-679 2778,-658 2518,-658"/>
<polygon fill="none" stroke="#bdbdbd" points="2518,-658 2518,-679 2778,-679 2778,-658 2518,-658"/>
<text text-anchor="start" x="2610" y="-667" font-family="Arial" font-weight="bold" font-size="10.00">INTERMEDIATE</text>
<polygon fill="none" stroke="#bdbdbd" points="2518,-488 2518,-658 2778,-658 2778,-488 2518,-488"/>
<image xlink:href="results/v2/route_trees_3764f7_top10_current/molecules/29c4845e89e4713c.png" width="250px" height="160px" preserveAspectRatio="xMinYMin meet" x="2523" y="-653"/>
<polygon fill="none" stroke="#bdbdbd" points="2518,-469 2518,-488 2778,-488 2778,-469 2518,-469"/>
<text text-anchor="start" x="2560" y="-476.6" font-family="Arial" font-size="8.00">CC(C)c1nc(N(C)S(C)(=O)=O)nc(&#45;c2ccc(F)cc2)...</text>
</g>
<!-- n8 -->
<g id="node9" class="node">
<title>n8</title>
<polygon fill="#ffffff" stroke="transparent" points="2998,-699 2998,-720 3258,-720 3258,-699 2998,-699"/>
<polygon fill="none" stroke="#bdbdbd" points="2998,-699 2998,-720 3258,-720 3258,-699 2998,-699"/>
<text text-anchor="start" x="3090" y="-708" font-family="Arial" font-weight="bold" font-size="10.00">INTERMEDIATE</text>
<polygon fill="none" stroke="#bdbdbd" points="2998,-529 2998,-699 3258,-699 3258,-529 2998,-529"/>
<image xlink:href="results/v2/route_trees_3764f7_top10_current/molecules/ca79ac7f201cbb6a.png" width="250px" height="160px" preserveAspectRatio="xMinYMin meet" x="3003" y="-694"/>
<polygon fill="none" stroke="#bdbdbd" points="2998,-510 2998,-529 3258,-529 3258,-510 2998,-510"/>
<text text-anchor="start" x="3040" y="-517.6" font-family="Arial" font-size="8.00">CC(C)c1nc(N(C)S(C)(=O)=O)nc(&#45;c2ccc(F)cc2)...</text>
</g>
<!-- n9 -->
<g id="node10" class="node">
<title>n9</title>
<polygon fill="#ffffff" stroke="transparent" points="3477,-872 3477,-893 3737,-893 3737,-872 3477,-872"/>
<polygon fill="none" stroke="#bdbdbd" points="3477,-872 3477,-893 3737,-893 3737,-872 3477,-872"/>
<text text-anchor="start" x="3569" y="-881" font-family="Arial" font-weight="bold" font-size="10.00">INTERMEDIATE</text>
<polygon fill="none" stroke="#bdbdbd" points="3477,-702 3477,-872 3737,-872 3737,-702 3477,-702"/>
<image xlink:href="results/v2/route_trees_3764f7_top10_current/molecules/b2eed2c3d5baf19d.png" width="250px" height="160px" preserveAspectRatio="xMinYMin meet" x="3482" y="-867"/>
<polygon fill="none" stroke="#bdbdbd" points="3477,-683 3477,-702 3737,-702 3737,-683 3477,-683"/>
<text text-anchor="start" x="3519" y="-690.6" font-family="Arial" font-size="8.00">CC(C)c1nc(N(C)S(C)(=O)=O)nc(&#45;c2ccc(F)cc2)...</text>
</g>
<!-- n10 -->
<g id="node11" class="node">
<title>n10</title>
<polygon fill="#edf6e7" stroke="transparent" points="7591,-699 7591,-720 7851,-720 7851,-699 7591,-699"/>
<polygon fill="none" stroke="#5f8f3d" points="7591,-699 7591,-720 7851,-720 7851,-699 7591,-699"/>
<text text-anchor="start" x="7694.5" y="-708" font-family="Arial" font-weight="bold" font-size="10.00">TERMINAL</text>
<polygon fill="none" stroke="#5f8f3d" points="7591,-529 7591,-699 7851,-699 7851,-529 7591,-529"/>
<image xlink:href="results/v2/route_trees_3764f7_top10_current/molecules/d150779d88df411e.png" width="250px" height="160px" preserveAspectRatio="xMinYMin meet" x="7596" y="-694"/>
<polygon fill="none" stroke="#5f8f3d" points="7591,-510 7591,-529 7851,-529 7851,-510 7591,-510"/>
<text text-anchor="start" x="7685.5" y="-517.6" font-family="Arial" font-size="8.00">CC(=O)OC(C)(C)C</text>
</g>
<!-- n11 -->
<g id="node12" class="node">
<title>n11</title>
<polygon fill="#ffffff" stroke="transparent" points="3957,-1404 3957,-1425 4217,-1425 4217,-1404 3957,-1404"/>
<polygon fill="none" stroke="#bdbdbd" points="3957,-1404 3957,-1425 4217,-1425 4217,-1404 3957,-1404"/>
<text text-anchor="start" x="4049" y="-1413" font-family="Arial" font-weight="bold" font-size="10.00">INTERMEDIATE</text>
<polygon fill="none" stroke="#bdbdbd" points="3957,-1234 3957,-1404 4217,-1404 4217,-1234 3957,-1234"/>
<image xlink:href="results/v2/route_trees_3764f7_top10_current/molecules/c22deec9ea926523.png" width="250px" height="160px" preserveAspectRatio="xMinYMin meet" x="3962" y="-1399"/>
<polygon fill="none" stroke="#bdbdbd" points="3957,-1215 3957,-1234 4217,-1234 4217,-1215 3957,-1215"/>
<text text-anchor="start" x="3999" y="-1222.6" font-family="Arial" font-size="8.00">CC(C)c1nc(N(C)S(C)(=O)=O)nc(&#45;c2ccc(F)cc2)...</text>
</g>
<!-- n12 -->
<g id="node13" class="node">
<title>n12</title>
<polygon fill="#ffffff" stroke="transparent" points="4440,-1858 4440,-1879 4700,-1879 4700,-1858 4440,-1858"/>
<polygon fill="none" stroke="#bdbdbd" points="4440,-1858 4440,-1879 4700,-1879 4700,-1858 4440,-1858"/>
<text text-anchor="start" x="4532" y="-1867" font-family="Arial" font-weight="bold" font-size="10.00">INTERMEDIATE</text>
<polygon fill="none" stroke="#bdbdbd" points="4440,-1688 4440,-1858 4700,-1858 4700,-1688 4440,-1688"/>
<image xlink:href="results/v2/route_trees_3764f7_top10_current/molecules/1c1c7505a32127bf.png" width="250px" height="160px" preserveAspectRatio="xMinYMin meet" x="4445" y="-1853"/>
<polygon fill="none" stroke="#bdbdbd" points="4440,-1669 4440,-1688 4700,-1688 4700,-1669 4440,-1669"/>
<text text-anchor="start" x="4480.5" y="-1676.6" font-family="Arial" font-size="8.00">CCOC(=O)/C=C/c1c(&#45;c2ccc(F)cc2)nc(N(C)S(C)...</text>
</g>
<!-- n13 -->
<g id="node14" class="node">
<title>n13</title>
<polygon fill="#edf6e7" stroke="transparent" points="7591,-2229 7591,-2250 7851,-2250 7851,-2229 7591,-2229"/>
<polygon fill="none" stroke="#5f8f3d" points="7591,-2229 7591,-2250 7851,-2250 7851,-2229 7591,-2229"/>
<text text-anchor="start" x="7694.5" y="-2238" font-family="Arial" font-weight="bold" font-size="10.00">TERMINAL</text>
<polygon fill="none" stroke="#5f8f3d" points="7591,-2059 7591,-2229 7851,-2229 7851,-2059 7591,-2059"/>
<image xlink:href="results/v2/route_trees_3764f7_top10_current/molecules/e214417a3034d458.png" width="250px" height="160px" preserveAspectRatio="xMinYMin meet" x="7596" y="-2224"/>
<polygon fill="none" stroke="#5f8f3d" points="7591,-2040 7591,-2059 7851,-2059 7851,-2040 7591,-2040"/>
<text text-anchor="start" x="7687.5" y="-2047.6" font-family="Arial" font-size="8.00">OB(O)c1ccc(F)cc1</text>
</g>
<!-- n14 -->
<g id="node15" class="node">
<title>n14</title>
<polygon fill="#ffffff" stroke="transparent" points="4931,-1858 4931,-1879 5191,-1879 5191,-1858 4931,-1858"/>
<polygon fill="none" stroke="#bdbdbd" points="4931,-1858 4931,-1879 5191,-1879 5191,-1858 4931,-1858"/>
<text text-anchor="start" x="5023" y="-1867" font-family="Arial" font-weight="bold" font-size="10.00">INTERMEDIATE</text>
<polygon fill="none" stroke="#bdbdbd" points="4931,-1688 4931,-1858 5191,-1858 5191,-1688 4931,-1688"/>
<image xlink:href="results/v2/route_trees_3764f7_top10_current/molecules/af0fa5ab6b68df64.png" width="250px" height="160px" preserveAspectRatio="xMinYMin meet" x="4936" y="-1853"/>
<polygon fill="none" stroke="#bdbdbd" points="4931,-1669 4931,-1688 5191,-1688 5191,-1669 4931,-1669"/>
<text text-anchor="start" x="4969" y="-1676.6" font-family="Arial" font-size="8.00">CCOC(=O)/C=C/c1c(Cl)nc(N(C)S(C)(=O)=O)nc1...</text>
</g>
<!-- n15 -->
<g id="node16" class="node">
<title>n15</title>
<polygon fill="#edf6e7" stroke="transparent" points="7591,-1974 7591,-1995 7851,-1995 7851,-1974 7591,-1974"/>
<polygon fill="none" stroke="#5f8f3d" points="7591,-1974 7591,-1995 7851,-1995 7851,-1974 7591,-1974"/>
<text text-anchor="start" x="7694.5" y="-1983" font-family="Arial" font-weight="bold" font-size="10.00">TERMINAL</text>
<polygon fill="none" stroke="#5f8f3d" points="7591,-1804 7591,-1974 7851,-1974 7851,-1804 7591,-1804"/>
<image xlink:href="results/v2/route_trees_3764f7_top10_current/molecules/02fd5b9f346a5db9.png" width="250px" height="160px" preserveAspectRatio="xMinYMin meet" x="7596" y="-1969"/>
<polygon fill="none" stroke="#5f8f3d" points="7591,-1785 7591,-1804 7851,-1804 7851,-1785 7591,-1785"/>
<text text-anchor="start" x="7639.5" y="-1792.6" font-family="Arial" font-size="8.00">CCOC(=O)C=P(c1ccccc1)(c1ccccc1)c1ccccc1</text>
</g>
<!-- n16 -->
<g id="node17" class="node">
<title>n16</title>
<polygon fill="#ffffff" stroke="transparent" points="5352,-1741 5352,-1762 5612,-1762 5612,-1741 5352,-1741"/>
<polygon fill="none" stroke="#bdbdbd" points="5352,-1741 5352,-1762 5612,-1762 5612,-1741 5352,-1741"/>
<text text-anchor="start" x="5444" y="-1750" font-family="Arial" font-weight="bold" font-size="10.00">INTERMEDIATE</text>
<polygon fill="none" stroke="#bdbdbd" points="5352,-1571 5352,-1741 5612,-1741 5612,-1571 5352,-1571"/>
<image xlink:href="results/v2/route_trees_3764f7_top10_current/molecules/4fff0bd9b8e6031a.png" width="250px" height="160px" preserveAspectRatio="xMinYMin meet" x="5357" y="-1736"/>
<polygon fill="none" stroke="#bdbdbd" points="5352,-1552 5352,-1571 5612,-1571 5612,-1552 5352,-1552"/>
<text text-anchor="start" x="5404" y="-1559.6" font-family="Arial" font-size="8.00">CC(C)c1nc(N(C)S(C)(=O)=O)nc(Cl)c1C=O</text>
</g>
<!-- n17 -->
<g id="node18" class="node">
<title>n17</title>
<polygon fill="#ffffff" stroke="transparent" points="5773,-1599 5773,-1620 6033,-1620 6033,-1599 5773,-1599"/>
<polygon fill="none" stroke="#bdbdbd" points="5773,-1599 5773,-1620 6033,-1620 6033,-1599 5773,-1599"/>
<text text-anchor="start" x="5865" y="-1608" font-family="Arial" font-weight="bold" font-size="10.00">INTERMEDIATE</text>
<polygon fill="none" stroke="#bdbdbd" points="5773,-1429 5773,-1599 6033,-1599 6033,-1429 5773,-1429"/>
<image xlink:href="results/v2/route_trees_3764f7_top10_current/molecules/9ee23e7458293734.png" width="250px" height="160px" preserveAspectRatio="xMinYMin meet" x="5778" y="-1594"/>
<polygon fill="none" stroke="#bdbdbd" points="5773,-1410 5773,-1429 6033,-1429 6033,-1410 5773,-1410"/>
<text text-anchor="start" x="5827.5" y="-1417.6" font-family="Arial" font-size="8.00">CC(C)c1nc(N(C)S(C)(=O)=O)nc(Cl)c1CO</text>
</g>
<!-- n18 -->
<g id="node19" class="node">
<title>n18</title>
<polygon fill="#ffffff" stroke="transparent" points="6264,-1577 6264,-1598 6524,-1598 6524,-1577 6264,-1577"/>
<polygon fill="none" stroke="#bdbdbd" points="6264,-1577 6264,-1598 6524,-1598 6524,-1577 6264,-1577"/>
<text text-anchor="start" x="6356" y="-1586" font-family="Arial" font-weight="bold" font-size="10.00">INTERMEDIATE</text>
<polygon fill="none" stroke="#bdbdbd" points="6264,-1407 6264,-1577 6524,-1577 6524,-1407 6264,-1407"/>
<image xlink:href="results/v2/route_trees_3764f7_top10_current/molecules/9184248d5d863429.png" width="250px" height="160px" preserveAspectRatio="xMinYMin meet" x="6269" y="-1572"/>
<polygon fill="none" stroke="#bdbdbd" points="6264,-1388 6264,-1407 6524,-1407 6524,-1388 6264,-1388"/>
<text text-anchor="start" x="6304" y="-1395.6" font-family="Arial" font-size="8.00">CCOC(=O)c1c(Cl)nc(N(C)S(C)(=O)=O)nc1C(C)C</text>
</g>
<!-- n19 -->
<g id="node20" class="node">
<title>n19</title>
<polygon fill="#ffffff" stroke="transparent" points="6685,-1577 6685,-1598 6945,-1598 6945,-1577 6685,-1577"/>
<polygon fill="none" stroke="#bdbdbd" points="6685,-1577 6685,-1598 6945,-1598 6945,-1577 6685,-1577"/>
<text text-anchor="start" x="6777" y="-1586" font-family="Arial" font-weight="bold" font-size="10.00">INTERMEDIATE</text>
<polygon fill="none" stroke="#bdbdbd" points="6685,-1407 6685,-1577 6945,-1577 6945,-1407 6685,-1407"/>
<image xlink:href="results/v2/route_trees_3764f7_top10_current/molecules/61cf0dbc95c82852.png" width="250px" height="160px" preserveAspectRatio="xMinYMin meet" x="6690" y="-1572"/>
<polygon fill="none" stroke="#bdbdbd" points="6685,-1388 6685,-1407 6945,-1407 6945,-1388 6685,-1388"/>
<text text-anchor="start" x="6731" y="-1395.6" font-family="Arial" font-size="8.00">CCOC(=O)c1c(Cl)nc(NS(C)(=O)=O)nc1C(C)C</text>
</g>
<!-- n20 -->
<g id="node21" class="node">
<title>n20</title>
<polygon fill="#edf6e7" stroke="transparent" points="7591,-954 7591,-975 7851,-975 7851,-954 7591,-954"/>
<polygon fill="none" stroke="#5f8f3d" points="7591,-954 7591,-975 7851,-975 7851,-954 7591,-954"/>
<text text-anchor="start" x="7694.5" y="-963" font-family="Arial" font-weight="bold" font-size="10.00">TERMINAL</text>
<polygon fill="none" stroke="#5f8f3d" points="7591,-784 7591,-954 7851,-954 7851,-784 7591,-784"/>
<image xlink:href="results/v2/route_trees_3764f7_top10_current/molecules/13844228ea43240b.png" width="250px" height="160px" preserveAspectRatio="xMinYMin meet" x="7596" y="-949"/>
<polygon fill="none" stroke="#5f8f3d" points="7591,-765 7591,-784 7851,-784 7851,-765 7591,-765"/>
<text text-anchor="start" x="7716.5" y="-772.6" font-family="Arial" font-size="8.00">CI</text>
</g>
<!-- n21 -->
<g id="node22" class="node">
<title>n21</title>
<polygon fill="#edf6e7" stroke="transparent" points="7591,-1719 7591,-1740 7851,-1740 7851,-1719 7591,-1719"/>
<polygon fill="none" stroke="#5f8f3d" points="7591,-1719 7591,-1740 7851,-1740 7851,-1719 7591,-1719"/>
<text text-anchor="start" x="7694.5" y="-1728" font-family="Arial" font-weight="bold" font-size="10.00">TERMINAL</text>
<polygon fill="none" stroke="#5f8f3d" points="7591,-1549 7591,-1719 7851,-1719 7851,-1549 7591,-1549"/>
<image xlink:href="results/v2/route_trees_3764f7_top10_current/molecules/e382f87867ea8d4c.png" width="250px" height="160px" preserveAspectRatio="xMinYMin meet" x="7596" y="-1714"/>
<polygon fill="none" stroke="#5f8f3d" points="7591,-1530 7591,-1549 7851,-1549 7851,-1530 7591,-1530"/>
<text text-anchor="start" x="7695" y="-1537.6" font-family="Arial" font-size="8.00">CS(=O)(=O)Cl</text>
</g>
<!-- n22 -->
<g id="node23" class="node">
<title>n22</title>
<polygon fill="#ffffff" stroke="transparent" points="7106,-1464 7106,-1485 7366,-1485 7366,-1464 7106,-1464"/>
<polygon fill="none" stroke="#bdbdbd" points="7106,-1464 7106,-1485 7366,-1485 7366,-1464 7106,-1464"/>
<text text-anchor="start" x="7198" y="-1473" font-family="Arial" font-weight="bold" font-size="10.00">INTERMEDIATE</text>
<polygon fill="none" stroke="#bdbdbd" points="7106,-1294 7106,-1464 7366,-1464 7366,-1294 7106,-1294"/>
<image xlink:href="results/v2/route_trees_3764f7_top10_current/molecules/1acbebb23fff8399.png" width="250px" height="160px" preserveAspectRatio="xMinYMin meet" x="7111" y="-1459"/>
<polygon fill="none" stroke="#bdbdbd" points="7106,-1275 7106,-1294 7366,-1294 7366,-1275 7106,-1275"/>
<text text-anchor="start" x="7174" y="-1282.6" font-family="Arial" font-size="8.00">CCOC(=O)c1c(Cl)nc(N)nc1C(C)C</text>
</g>
<!-- n23 -->
<g id="node24" class="node">
<title>n23</title>
<polygon fill="#edf6e7" stroke="transparent" points="7591,-1464 7591,-1485 7851,-1485 7851,-1464 7591,-1464"/>
<polygon fill="none" stroke="#5f8f3d" points="7591,-1464 7591,-1485 7851,-1485 7851,-1464 7591,-1464"/>
<text text-anchor="start" x="7694.5" y="-1473" font-family="Arial" font-weight="bold" font-size="10.00">TERMINAL</text>
<polygon fill="none" stroke="#5f8f3d" points="7591,-1294 7591,-1464 7851,-1464 7851,-1294 7591,-1294"/>
<image xlink:href="results/v2/route_trees_3764f7_top10_current/molecules/080a31fd9fe01d55.png" width="250px" height="160px" preserveAspectRatio="xMinYMin meet" x="7596" y="-1459"/>
<polygon fill="none" stroke="#5f8f3d" points="7591,-1275 7591,-1294 7851,-1294 7851,-1275 7591,-1275"/>
<text text-anchor="start" x="7674" y="-1282.6" font-family="Arial" font-size="8.00">CCOC(=O)CC(=O)C(C)C</text>
</g>
<!-- n24 -->
<g id="node25" class="node">
<title>n24</title>
<polygon fill="#edf6e7" stroke="transparent" points="7591,-1209 7591,-1230 7851,-1230 7851,-1209 7591,-1209"/>
<polygon fill="none" stroke="#5f8f3d" points="7591,-1209 7591,-1230 7851,-1230 7851,-1209 7591,-1209"/>
<text text-anchor="start" x="7694.5" y="-1218" font-family="Arial" font-weight="bold" font-size="10.00">TERMINAL</text>
<polygon fill="none" stroke="#5f8f3d" points="7591,-1039 7591,-1209 7851,-1209 7851,-1039 7591,-1039"/>
<image xlink:href="results/v2/route_trees_3764f7_top10_current/molecules/719befc7e9f897e9.png" width="250px" height="160px" preserveAspectRatio="xMinYMin meet" x="7596" y="-1204"/>
<polygon fill="none" stroke="#5f8f3d" points="7591,-1020 7591,-1039 7851,-1039 7851,-1020 7591,-1020"/>
<text text-anchor="start" x="7703.5" y="-1027.6" font-family="Arial" font-size="8.00">N=C(N)N</text>
</g>
<!-- n25 -->
<g id="node26" class="node">
<title>n25</title>
<polygon fill="#edf6e7" stroke="transparent" points="7591,-444 7591,-465 7851,-465 7851,-444 7591,-444"/>
<polygon fill="none" stroke="#5f8f3d" points="7591,-444 7591,-465 7851,-465 7851,-444 7591,-444"/>
<text text-anchor="start" x="7694.5" y="-453" font-family="Arial" font-weight="bold" font-size="10.00">TERMINAL</text>
<polygon fill="none" stroke="#5f8f3d" points="7591,-274 7591,-444 7851,-444 7851,-274 7591,-274"/>
<image xlink:href="results/v2/route_trees_3764f7_top10_current/molecules/1514bef6b5d440fc.png" width="250px" height="160px" preserveAspectRatio="xMinYMin meet" x="7596" y="-439"/>
<polygon fill="none" stroke="#5f8f3d" points="7591,-255 7591,-274 7851,-274 7851,-255 7591,-255"/>
<text text-anchor="start" x="7683" y="-262.6" font-family="Arial" font-size="8.00">COC(=O)CC(=O)OC</text>
</g>
</g>
</svg>
